Involve-Regular.ufo
<glyph name="ampersand" format="2">
  <advance width="757"/>
  <unicode hex="0026"/>
  <outline>
    <contour>
      <point x="57" y="213" type="curve" smooth="yes"/>
      <point x="57" y="83.9978"/>
      <point x="157.002" y="-13"/>
      <point x="290" y="-13" type="curve" smooth="yes"/>
      <point x="388.587" y="-13"/>
      <point x="455.343" y="36.6929"/>
      <point x="513" y="153" type="curve"/>
      <point x="684" y="-13" type="line"/>
      <point x="735" y="38" type="line"/>
      <point x="548" y="220" type="line"/>
      <point x="684" y="481" type="line"/>
      <point x="602" y="481" type="line"/>
      <point x="494" y="273" type="line"/>
      <point x="354" y="411" type="line"/>
      <point x="429.063" y="449.404"/>
      <point x="498" y="484.056"/>
      <point x="498" y="583" type="curve" smooth="yes"/>
      <point x="498" y="679.921"/>
      <point x="422.083" y="752"/>
      <point x="320" y="752" type="curve" smooth="yes"/>
      <point x="221.915" y="752"/>
      <point x="145" y="679.92"/>
      <point x="145" y="588" type="curve" smooth="yes"/>
      <point x="145" y="535.902"/>
      <point x="165.116" y="497.879"/>
      <point x="227" y="433" type="curve"/>
      <point x="106.177" y="371.115"/>
      <point x="57" y="307.474"/>
    </contour>
    <contour>
      <point x="300" y="464" type="curve"/>
      <point x="241.394" y="517.554"/>
      <point x="219" y="552.389"/>
      <point x="219" y="590" type="curve" smooth="yes"/>
      <point x="219" y="643.248"/>
      <point x="264.268" y="685"/>
      <point x="322" y="685" type="curve" smooth="yes"/>
      <point x="382.865" y="685"/>
      <point x="428" y="644.123"/>
      <point x="428" y="589" type="curve" smooth="yes"/>
      <point x="428" y="537.031"/>
      <point x="388.053" y="498.02"/>
    </contour>
    <contour>
      <point x="130" y="205" type="curve" smooth="yes"/>
      <point x="130" y="280.167"/>
      <point x="170.243" y="327.117"/>
      <point x="280" y="380" type="curve"/>
      <point x="458" y="206" type="line"/>
      <point x="404.075" y="96.1525"/>
      <point x="356.099" y="54"/>
      <point x="285" y="54" type="curve" smooth="yes"/>
      <point x="198.387" y="54"/>
      <point x="130" y="120.623"/>
    </contour>
  </outline>
</glyph>
<glyph name="parenleft" format="2">
  <advance width="369"/>
  <unicode hex="0028"/>
  <outline>
    <contour>
      <point x="335" y="-60" type="line"/>
      <point x="209.052" y="17.7123"/>
      <point x="131" y="158.895"/>
      <point x="131" y="309" type="curve" smooth="yes"/>
      <point x="131" y="456.673"/>
      <point x="210.785" y="600.208"/>
      <point x="335" y="676" type="curve"/>
      <point x="335" y="739" type="line"/>
      <point x="174.4" y="683.621"/>
      <point x="57" y="502.03"/>
      <point x="57" y="309" type="curve" smooth="yes"/>
      <point x="57" y="117.819"/>
      <point x="175.971" y="-67.9126"/>
      <point x="335" y="-125" type="curve"/>
    </contour>
  </outline>
</glyph>
<glyph name="comma" format="2">
  <advance width="235"/>
  <unicode hex="002C"/>
  <outline>
    <contour>
      <point x="91" y="0" type="line"/>
      <point x="120.789" y="0" type="line"/>
      <point x="120.789" y="-26.6561" type="line" smooth="yes"/>
      <point x="120.789" y="-55.9509"/>
      <point x="96.9225" y="-81.92"/>
      <point x="70" y="-81.92" type="curve"/>
      <point x="70" y="-126" type="line"/>
      <point x="121.248" y="-126"/>
      <point x="165" y="-77.1861"/>
      <point x="165" y="-20.0094" type="curve" smooth="yes"/>
      <point x="165" y="126" type="line"/>
      <point x="91" y="126" type="line"/>
    </contour>
  </outline>
</glyph>
<glyph name="zero" format="2">
  <advance width="554"/>
  <unicode hex="0030"/>
  <anchor x="277" y="805" name="Anchor-0"/>
  <outline>
    <contour>
      <point x="30" y="269" type="line" smooth="yes"/>
      <point x="30" y="84.7645"/>
      <point x="117.711" y="-13"/>
      <point x="283" y="-13" type="curve" smooth="yes"/>
      <point x="443.186" y="-13"/>
      <point x="525" y="82.3371"/>
      <point x="525" y="269" type="curve" smooth="yes"/>
      <point x="525" y="479" type="line" smooth="yes"/>
      <point x="525" y="653.876"/>
      <point x="435.862" y="752"/>
      <point x="277" y="752" type="curve" smooth="yes"/>
      <point x="117.33" y="752"/>
      <point x="30" y="655.477"/>
      <point x="30" y="479" type="curve" smooth="yes"/>
    </contour>
    <contour>
      <point x="103" y="281" type="curve" smooth="yes"/>
      <point x="103" y="462" type="line" smooth="yes"/>
      <point x="103" y="612.222"/>
      <point x="160.113" y="685"/>
      <point x="278" y="685" type="curve" smooth="yes"/>
      <point x="395.181" y="685"/>
      <point x="452" y="612.18"/>
      <point x="452" y="462" type="curve" smooth="yes"/>
      <point x="452" y="281" type="line" smooth="yes"/>
      <point x="452" y="124.286"/>
      <point x="398.744" y="54"/>
      <point x="280" y="54" type="curve" smooth="yes"/>
      <point x="160.455" y="54"/>
      <point x="103" y="127.685"/>
    </contour>
  </outline>
</glyph>
<glyph name="three" format="2">
  <advance width="554"/>
  <unicode hex="0033"/>
  <anchor x="277" y="805" name="Anchor-0"/>
  <outline>
    <contour>
      <point x="33" y="231" type="line"/>
      <point x="38.8389" y="82.1077"/>
      <point x="132.387" y="-13"/>
      <point x="273" y="-13" type="curve" smooth="yes"/>
      <point x="402.316" y="-13"/>
      <point x="504" y="91.3247"/>
      <point x="504" y="224" type="curve" smooth="yes"/>
      <point x="504" y="313.568"/>
      <point x="461.477" y="381.265"/>
      <point x="379" y="423" type="curve"/>
      <point x="430.933" y="458.954"/>
      <point x="455" y="503.921"/>
      <point x="455" y="565" type="curve" smooth="yes"/>
      <point x="455" y="675.296"/>
      <point x="378.706" y="752"/>
      <point x="269" y="752" type="curve" smooth="yes"/>
      <point x="158.071" y="752"/>
      <point x="86.0026" y="676.078"/>
      <point x="82" y="555" type="curve"/>
      <point x="155" y="555" type="line"/>
      <point x="156.002" y="638.125"/>
      <point x="197.108" y="685"/>
      <point x="269" y="685" type="curve" smooth="yes"/>
      <point x="334.828" y="685"/>
      <point x="381" y="637.179"/>
      <point x="381" y="569" type="curve" smooth="yes"/>
      <point x="381" y="503.966"/>
      <point x="337.995" y="454"/>
      <point x="282.021" y="454" type="curve" smooth="yes"/>
      <point x="219" y="454" type="line"/>
      <point x="219" y="387.844" type="line"/>
      <point x="236.968" y="387.844" type="line" smooth="yes"/>
      <point x="361.271" y="387.844"/>
      <point x="430" y="328.083"/>
      <point x="430" y="220" type="curve" smooth="yes"/>
      <point x="430" y="125.794"/>
      <point x="360.801" y="54"/>
      <point x="270" y="54" type="curve" smooth="yes"/>
      <point x="174.356" y="54"/>
      <point x="114.311" y="118.805"/>
      <point x="106" y="231" type="curve"/>
    </contour>
  </outline>
</glyph>
<glyph name="four" format="2">
  <advance width="554"/>
  <unicode hex="0034"/>
  <anchor x="277" y="805" name="Anchor-0"/>
  <outline>
    <contour>
      <point x="12" y="135" type="line"/>
      <point x="386" y="135" type="line"/>
      <point x="386" y="0" type="line"/>
      <point x="459" y="0" type="line"/>
      <point x="459" y="135" type="line"/>
      <point x="527" y="135" type="line"/>
      <point x="527" y="202" type="line"/>
      <point x="459" y="202" type="line"/>
      <point x="459" y="739" type="line"/>
      <point x="372" y="739" type="line"/>
      <point x="12" y="202" type="line"/>
    </contour>
    <contour>
      <point x="97" y="202" type="line"/>
      <point x="386" y="637" type="line"/>
      <point x="386" y="202" type="line"/>
    </contour>
  </outline>
</glyph>
<glyph name="eight" format="2">
  <advance width="554"/>
  <unicode hex="0038"/>
  <anchor x="277" y="805" name="Anchor-0"/>
  <outline>
    <contour>
      <point x="42" y="215" type="curve" smooth="yes"/>
      <point x="42" y="84.8571"/>
      <point x="144.149" y="-13"/>
      <point x="280" y="-13" type="curve" smooth="yes"/>
      <point x="415.292" y="-13"/>
      <point x="512" y="83.2909"/>
      <point x="512" y="218" type="curve" smooth="yes"/>
      <point x="512" y="308.453"/>
      <point x="467.499" y="376.781"/>
      <point x="385" y="413" type="curve"/>
      <point x="445.037" y="441.017"/>
      <point x="473" y="488.045"/>
      <point x="473" y="561" type="curve" smooth="yes"/>
      <point x="473" y="672.831"/>
      <point x="392.173" y="752"/>
      <point x="278" y="752" type="curve" smooth="yes"/>
      <point x="165.788" y="752"/>
      <point x="81" y="669.794"/>
      <point x="81" y="561" type="curve" smooth="yes"/>
      <point x="81" y="493.357"/>
      <point x="107.872" y="447.112"/>
      <point x="167" y="413" type="curve"/>
      <point x="86.1379" y="374.066"/>
      <point x="42" y="304.152"/>
    </contour>
    <contour>
      <point x="280" y="444" type="curve" smooth="yes"/>
      <point x="208.639" y="444"/>
      <point x="155" y="496.352"/>
      <point x="155" y="566" type="curve" smooth="yes"/>
      <point x="155" y="635.208"/>
      <point x="205.21" y="685"/>
      <point x="275" y="685" type="curve" smooth="yes"/>
      <point x="349.2" y="685"/>
      <point x="399" y="636.806"/>
      <point x="399" y="565" type="curve" smooth="yes"/>
      <point x="399" y="495.929"/>
      <point x="347.93" y="444"/>
    </contour>
    <contour>
      <point x="116" y="213" type="curve" smooth="yes"/>
      <point x="116" y="307.877"/>
      <point x="181.88" y="375"/>
      <point x="275" y="375" type="curve" smooth="yes"/>
      <point x="371.682" y="375"/>
      <point x="438" y="310.31"/>
      <point x="438" y="216" type="curve" smooth="yes"/>
      <point x="438" y="121.123"/>
      <point x="372.12" y="54"/>
      <point x="279" y="54" type="curve" smooth="yes"/>
      <point x="184.343" y="54"/>
      <point x="116" y="120.666"/>
    </contour>
  </outline>
</glyph>
<glyph name="semicolon" format="2">
  <advance width="277"/>
  <unicode hex="003B"/>
  <outline>
    <contour>
      <point x="125" y="0" type="line"/>
      <point x="154.789" y="0" type="line"/>
      <point x="154.789" y="-26.6561" type="line" smooth="yes"/>
      <point x="154.789" y="-55.9509"/>
      <point x="130.922" y="-81.92"/>
      <point x="104" y="-81.92" type="curve"/>
      <point x="104" y="-126" type="line"/>
      <point x="155.248" y="-126"/>
      <point x="199" y="-77.1861"/>
      <point x="199" y="-20.0094" type="curve" smooth="yes"/>
      <point x="199" y="126" type="line"/>
      <point x="125" y="126" type="line"/>
    </contour>
    <contour>
      <point x="125" y="381" type="line"/>
      <point x="199" y="381" type="line"/>
      <point x="199" y="507" type="line"/>
      <point x="125" y="507" type="line"/>
    </contour>
  </outline>
  <guideline angle="90" x="41" y="0"/>
  <guideline angle="0" x="0" y="-126"/>
</glyph>
<glyph name="C" format="2">
  <advance width="813"/>
  <unicode hex="0043"/>
  <anchor x="427" y="805" name="Anchor-0"/>
  <outline>
    <contour>
      <point x="688" y="194" type="line"/>
      <point x="614.668" y="97.9102"/>
      <point x="535.331" y="55"/>
      <point x="431" y="55" type="curve" smooth="yes"/>
      <point x="258.829" y="55"/>
      <point x="119" y="196.173"/>
      <point x="119" y="370" type="curve" smooth="yes"/>
      <point x="119" y="548.354"/>
      <point x="253.35" y="684"/>
      <point x="430" y="684" type="curve" smooth="yes"/>
      <point x="542.118" y="684"/>
      <point x="626.232" y="638.631"/>
      <point x="684" y="547" type="curve"/>
      <point x="767" y="547" type="line"/>
      <point x="710.118" y="673.738"/>
      <point x="580.317" y="752"/>
      <point x="427" y="752" type="curve" smooth="yes"/>
      <point x="207.074" y="752"/>
      <point x="44" y="588.074"/>
      <point x="44" y="367" type="curve" smooth="yes"/>
      <point x="44" y="150.778"/>
      <point x="211.226" y="-13"/>
      <point x="432" y="-13" type="curve" smooth="yes"/>
      <point x="581.85" y="-13"/>
      <point x="695.926" y="56.8629"/>
      <point x="770" y="194" type="curve"/>
    </contour>
  </outline>
</glyph>
<glyph name="D" format="2">
  <advance width="744"/>
  <unicode hex="0044"/>
  <anchor x="330" y="805" name="Anchor-0"/>
  <outline>
    <contour>
      <point x="76" y="0" type="line"/>
      <point x="275" y="0" type="line" smooth="yes"/>
      <point x="381.902" y="0"/>
      <point x="458.067" y="15.7264"/>
      <point x="522" y="51" type="curve" smooth="yes"/>
      <point x="637.619" y="114.79"/>
      <point x="700" y="225.534"/>
      <point x="700" y="367" type="curve" smooth="yes"/>
      <point x="700" y="502.536"/>
      <point x="644.874" y="608.997"/>
      <point x="540" y="676" type="curve" smooth="yes"/>
      <point x="468.45" y="721.713"/>
      <point x="388.873" y="739"/>
      <point x="250" y="739" type="curve" smooth="yes"/>
      <point x="76" y="739" type="line"/>
    </contour>
    <contour>
      <point x="150" y="67" type="line"/>
      <point x="150" y="672" type="line"/>
      <point x="253" y="672" type="line" smooth="yes"/>
      <point x="359.918" y="672"/>
      <point x="429.154" y="658.812"/>
      <point x="484" y="628" type="curve" smooth="yes"/>
      <point x="573.059" y="577.967"/>
      <point x="625" y="482.926"/>
      <point x="625" y="370" type="curve" smooth="yes"/>
      <point x="625" y="275.74"/>
      <point x="589.122" y="192.504"/>
      <point x="525" y="138" type="curve" smooth="yes"/>
      <point x="465.084" y="87.0716"/>
      <point x="388.19" y="67"/>
      <point x="253" y="67" type="curve" smooth="yes"/>
    </contour>
  </outline>
</glyph>
<glyph name="J" format="2">
  <advance width="482"/>
  <unicode hex="004A"/>
  <anchor x="369" y="805" name="Anchor-0"/>
  <outline>
    <contour>
      <point x="11" y="175" type="line"/>
      <point x="17.0097" y="56.8089"/>
      <point x="91.1905" y="-14"/>
      <point x="209" y="-14" type="curve" smooth="yes"/>
      <point x="336.924" y="-14"/>
      <point x="406" y="71.9061"/>
      <point x="406" y="231" type="curve" smooth="yes"/>
      <point x="406" y="739" type="line"/>
      <point x="332" y="739" type="line"/>
      <point x="332" y="231" type="line" smooth="yes"/>
      <point x="332" y="114.467"/>
      <point x="290.322" y="54"/>
      <point x="210" y="54" type="curve" smooth="yes"/>
      <point x="136.95" y="54"/>
      <point x="88.9966" y="100.051"/>
      <point x="84" y="175" type="curve"/>
    </contour>
  </outline>
</glyph>
<glyph name="Q" format="2">
  <advance width="871"/>
  <unicode hex="0051"/>
  <anchor x="442" y="805" name="Anchor-0"/>
  <outline>
    <contour>
      <point x="44" y="369" type="curve" smooth="yes"/>
      <point x="44" y="156.229"/>
      <point x="220.76" y="-13"/>
      <point x="443" y="-13" type="curve" smooth="yes"/>
      <point x="525.344" y="-13"/>
      <point x="602.262" y="9.1746"/>
      <point x="665" y="51" type="curve"/>
      <point x="712.214" y="7.48888"/>
      <point x="750.857" y="-9.20228"/>
      <point x="804.38" y="-9.20228" type="curve" smooth="yes"/>
      <point x="811.639" y="-9.20228"/>
      <point x="819.163" y="-8.80398"/>
      <point x="827" y="-8.00498" type="curve"/>
      <point x="827" y="56" type="line"/>
      <point x="822.188" y="55.3125"/>
      <point x="817.5" y="55"/>
      <point x="812" y="55" type="curve" smooth="yes"/>
      <point x="780.895" y="55"/>
      <point x="752.875" y="66.0911"/>
      <point x="716" y="93" type="curve"/>
      <point x="796.421" y="161.358"/>
      <point x="839" y="257.593"/>
      <point x="839" y="371" type="curve" smooth="yes"/>
      <point x="839" y="589.977"/>
      <point x="671.024" y="752"/>
      <point x="444" y="752" type="curve" smooth="yes"/>
      <point x="215.14" y="752"/>
      <point x="44" y="588.134"/>
    </contour>
    <contour>
      <point x="161" y="216" type="curve"/>
      <point x="200.429" y="231.772"/>
      <point x="229.31" y="237"/>
      <point x="277" y="237" type="curve" smooth="yes"/>
      <point x="403.814" y="237"/>
      <point x="498.682" y="197.375"/>
      <point x="605" y="100" type="curve"/>
      <point x="555.843" y="68.901"/>
      <point x="505.8" y="55"/>
      <point x="443" y="55" type="curve" smooth="yes"/>
      <point x="325.55" y="55"/>
      <point x="212.801" y="119.37"/>
    </contour>
    <contour>
      <point x="130" y="279" type="curve"/>
      <point x="121.351" y="319.002"/>
      <point x="119" y="336.955"/>
      <point x="119" y="363" type="curve" smooth="yes"/>
      <point x="119" y="544.933"/>
      <point x="258.933" y="684"/>
      <point x="442" y="684" type="curve" smooth="yes"/>
      <point x="624.045" y="684"/>
      <point x="764" y="547.957"/>
      <point x="764" y="371" type="curve" smooth="yes"/>
      <point x="764" y="283.411"/>
      <point x="730.546" y="207.559"/>
      <point x="663" y="142" type="curve"/>
      <point x="518.702" y="265.077"/>
      <point x="426.856" y="305"/>
      <point x="288" y="305" type="curve" smooth="yes"/>
      <point x="230.269" y="305"/>
      <point x="186.287" y="297.762"/>
    </contour>
  </outline>
</glyph>
<glyph name="R" format="2">
  <advance width="607"/>
  <unicode hex="0052"/>
  <anchor x="300" y="805" name="Anchor-0"/>
  <outline>
    <contour>
      <point x="76" y="0" type="line"/>
      <point x="150" y="0" type="line"/>
      <point x="150" y="672" type="line"/>
      <point x="254" y="672" type="line" smooth="yes"/>
      <point x="426.817" y="672"/>
      <point x="502" y="620.766"/>
      <point x="502" y="503" type="curve" smooth="yes"/>
      <point x="502" y="391.955"/>
      <point x="415.15" y="335.084"/>
      <point x="245.569" y="335.084" type="curve" smooth="yes"/>
      <point x="225" y="335.084" type="line"/>
      <point x="474" y="0" type="line"/>
      <point x="566" y="0" type="line"/>
      <point x="359" y="276" type="line"/>
      <point x="500.887" y="290.988"/>
      <point x="577" y="369.894"/>
      <point x="577" y="502" type="curve" smooth="yes"/>
      <point x="577" y="662.467"/>
      <point x="474.311" y="739"/>
      <point x="259" y="739" type="curve" smooth="yes"/>
      <point x="76" y="739" type="line"/>
    </contour>
  </outline>
</glyph>
<glyph name="S" format="2">
  <advance width="498"/>
  <unicode hex="0053"/>
  <anchor x="259" y="805" name="Anchor-0"/>
  <outline>
    <contour>
      <point x="22" y="207" type="line"/>
      <point x="29.0092" y="73.8245"/>
      <point x="120.175" y="-13"/>
      <point x="253" y="-13" type="curve" smooth="yes"/>
      <point x="381.151" y="-13"/>
      <point x="476" y="80.148"/>
      <point x="476" y="206" type="curve" smooth="yes"/>
      <point x="476" y="318.5"/>
      <point x="419.125" y="376.993"/>
      <point x="265" y="423" type="curve" smooth="yes"/>
      <point x="159.979" y="454.349"/>
      <point x="121" y="490.081"/>
      <point x="121" y="555" type="curve" smooth="yes"/>
      <point x="121" y="629.789"/>
      <point x="174.791" y="684"/>
      <point x="249" y="684" type="curve" smooth="yes"/>
      <point x="324" y="684"/>
      <point x="376" y="632"/>
      <point x="381" y="552" type="curve"/>
      <point x="458" y="552" type="line"/>
      <point x="455.003" y="671.901"/>
      <point x="372.1" y="752"/>
      <point x="251" y="752" type="curve" smooth="yes"/>
      <point x="131.751" y="752"/>
      <point x="46" y="668.759"/>
      <point x="46" y="553" type="curve" smooth="yes"/>
      <point x="46" y="449.439"/>
      <point x="96.7558" y="396.813"/>
      <point x="236" y="356" type="curve" smooth="yes"/>
      <point x="357.852" y="320.285"/>
      <point x="401" y="280.014"/>
      <point x="401" y="202" type="curve" smooth="yes"/>
      <point x="401" y="116.709"/>
      <point x="339.711" y="55"/>
      <point x="255" y="55" type="curve" smooth="yes"/>
      <point x="167.713" y="55"/>
      <point x="111.24" y="110.74"/>
      <point x="101" y="207" type="curve"/>
    </contour>
  </outline>
</glyph>
<glyph name="W" format="2">
  <advance width="960"/>
  <unicode hex="0057"/>
  <anchor x="480" y="805" name="Anchor-0"/>
  <outline>
    <contour>
      <point x="221" y="0" type="line"/>
      <point x="317" y="0" type="line"/>
      <point x="479" y="606" type="line"/>
      <point x="643" y="0" type="line"/>
      <point x="738" y="0" type="line"/>
      <point x="950" y="739" type="line"/>
      <point x="874" y="739" type="line"/>
      <point x="692" y="96" type="line"/>
      <point x="515" y="739" type="line"/>
      <point x="445" y="739" type="line"/>
      <point x="268" y="96" type="line"/>
      <point x="86" y="739" type="line"/>
      <point x="10" y="739" type="line"/>
    </contour>
  </outline>
</glyph>
<glyph name="bracketleft" format="2">
  <advance width="351"/>
  <unicode hex="005B"/>
  <outline>
    <contour>
      <point x="313" y="-50" type="line"/>
      <point x="213.825" y="-5.92232"/>
      <point x="182" y="49.2252"/>
      <point x="182" y="177" type="curve" smooth="yes"/>
      <point x="182" y="448" type="line" smooth="yes"/>
      <point x="182" y="566.294"/>
      <point x="215.243" y="621.107"/>
      <point x="313" y="664" type="curve"/>
      <point x="313" y="739" type="line"/>
      <point x="188.557" y="707.279"/>
      <point x="112" y="601.776"/>
      <point x="112" y="462" type="curve" smooth="yes"/>
      <point x="112" y="164" type="line" smooth="yes"/>
      <point x="112" y="11.8938"/>
      <point x="181.546" y="-88.1007"/>
      <point x="313" y="-125" type="curve"/>
    </contour>
  </outline>
</glyph>
<glyph name="d" format="2">
  <advance width="685"/>
  <unicode hex="0064"/>
  <anchor x="354" y="805" name="Anchor-0"/>
  <outline>
    <contour>
      <point x="42" y="272" type="curve" smooth="yes"/>
      <point x="42" y="110.186"/>
      <point x="170.805" y="-13"/>
      <point x="340" y="-13" type="curve" smooth="yes"/>
      <point x="431.357" y="-13"/>
      <point x="491.603" y="19.4402"/>
      <point x="548" y="99" type="curve"/>
      <point x="548" y="0" type="line"/>
      <point x="622" y="0" type="line"/>
      <point x="622" y="739" type="line"/>
      <point x="548" y="739" type="line"/>
      <point x="548" y="460" type="line"/>
      <point x="493.921" y="525.095"/>
      <point x="418.875" y="560"/>
      <point x="333" y="560" type="curve" smooth="yes"/>
      <point x="167.146" y="560"/>
      <point x="42" y="436.144"/>
    </contour>
    <contour>
      <point x="117" y="274" type="curve" smooth="yes"/>
      <point x="117" y="394.941"/>
      <point x="210.943" y="492"/>
      <point x="328" y="492" type="curve" smooth="yes"/>
      <point x="452.673" y="492"/>
      <point x="551" y="396.318"/>
      <point x="551" y="275" type="curve" smooth="yes"/>
      <point x="551" y="154.077"/>
      <point x="455.075" y="55"/>
      <point x="338" y="55" type="curve" smooth="yes"/>
      <point x="213.938" y="55"/>
      <point x="117" y="151.061"/>
    </contour>
  </outline>
</glyph>
<glyph name="e" format="2">
  <advance width="650"/>
  <unicode hex="0065"/>
  <anchor x="329" y="623" name="Anchor-0"/>
  <outline>
    <contour>
      <point x="520" y="180" type="line"/>
      <point x="489.111" y="105.269"/>
      <point x="412.3" y="55"/>
      <point x="329" y="55" type="curve" smooth="yes"/>
      <point x="216.211" y="55"/>
      <point x="122.011" y="140.797"/>
      <point x="116" y="249" type="curve"/>
      <point x="610" y="249" type="line"/>
      <point x="612.493" y="259.407"/>
      <point x="613.73" y="269.616"/>
      <point x="613.739" y="279.839" type="curve" smooth="yes"/>
      <point x="613.867" y="432.402"/>
      <point x="482.362" y="560"/>
      <point x="325" y="560" type="curve" smooth="yes"/>
      <point x="166.78" y="560"/>
      <point x="42" y="434.779"/>
      <point x="42" y="276" type="curve" smooth="yes"/>
      <point x="42" y="114"/>
      <point x="169" y="-13"/>
      <point x="331" y="-13" type="curve" smooth="yes"/>
      <point x="449.749" y="-13"/>
      <point x="556.915" y="64.7561"/>
      <point x="597" y="180" type="curve"/>
    </contour>
    <contour>
      <point x="118" y="316" type="line"/>
      <point x="138.049" y="421.257"/>
      <point x="221.253" y="492"/>
      <point x="325" y="492" type="curve" smooth="yes"/>
      <point x="431.148" y="492"/>
      <point x="512.035" y="424.849"/>
      <point x="537" y="316" type="curve"/>
    </contour>
  </outline>
</glyph>
<glyph name="h" format="2">
  <advance width="610"/>
  <unicode hex="0068"/>
  <anchor x="288" y="805" name="Anchor-0"/>
  <outline>
    <contour>
      <point x="63" y="0" type="line"/>
      <point x="137" y="0" type="line"/>
      <point x="137" y="300" type="line" smooth="yes"/>
      <point x="137" y="421.209"/>
      <point x="198.574" y="492"/>
      <point x="304" y="492" type="curve" smooth="yes"/>
      <point x="411.721" y="492"/>
      <point x="473" y="420.205"/>
      <point x="473" y="294" type="curve" smooth="yes"/>
      <point x="473" y="0" type="line"/>
      <point x="547" y="0" type="line"/>
      <point x="547" y="294" type="line" smooth="yes"/>
      <point x="547" y="466.296"/>
      <point x="463.512" y="560"/>
      <point x="310" y="560" type="curve" smooth="yes"/>
      <point x="235.893" y="560"/>
      <point x="173.947" y="529.922"/>
      <point x="137" y="476" type="curve"/>
      <point x="137" y="739" type="line"/>
      <point x="63" y="739" type="line"/>
    </contour>
  </outline>
</glyph>
<glyph name="m" format="2">
  <advance width="938"/>
  <unicode hex="006D"/>
  <anchor x="469" y="623" name="Anchor-0"/>
  <outline>
    <contour>
      <point x="63" y="0" type="line"/>
      <point x="137" y="0" type="line"/>
      <point x="137" y="319" type="line" smooth="yes"/>
      <point x="137" y="427.636"/>
      <point x="191.691" y="492"/>
      <point x="284" y="492" type="curve" smooth="yes"/>
      <point x="377.978" y="492"/>
      <point x="432" y="428.853"/>
      <point x="432" y="319" type="curve" smooth="yes"/>
      <point x="432" y="0" type="line"/>
      <point x="506" y="0" type="line"/>
      <point x="506" y="317" type="line" smooth="yes"/>
      <point x="506" y="429.316"/>
      <point x="559.729" y="492"/>
      <point x="656" y="492" type="curve" smooth="yes"/>
      <point x="750.283" y="492"/>
      <point x="801" y="430.79"/>
      <point x="801" y="317" type="curve" smooth="yes"/>
      <point x="801" y="0" type="line"/>
      <point x="875" y="0" type="line"/>
      <point x="875" y="325" type="line" smooth="yes"/>
      <point x="875" y="473.675"/>
      <point x="795.655" y="560"/>
      <point x="659" y="560" type="curve" smooth="yes"/>
      <point x="574.3" y="560"/>
      <point x="515.623" y="527.402"/>
      <point x="470" y="455" type="curve"/>
      <point x="427.039" y="528.932"/>
      <point x="374.076" y="560"/>
      <point x="291" y="560" type="curve" smooth="yes"/>
      <point x="222.276" y="560"/>
      <point x="180.174" y="539.222"/>
      <point x="137" y="484" type="curve"/>
      <point x="137" y="547" type="line"/>
      <point x="63" y="547" type="line"/>
    </contour>
  </outline>
</glyph>
<glyph name="p" format="2">
  <advance width="682"/>
  <unicode hex="0070"/>
  <anchor x="335" y="623" name="Anchor-0"/>
  <outline>
    <contour>
      <point x="63" y="-192" type="line"/>
      <point x="137" y="-192" type="line"/>
      <point x="137" y="94" type="line"/>
      <point x="184.909" y="24.1325"/>
      <point x="258.827" y="-13"/>
      <point x="350" y="-13" type="curve" smooth="yes"/>
      <point x="513.626" y="-13"/>
      <point x="640" y="111.631"/>
      <point x="640" y="273" type="curve" smooth="yes"/>
      <point x="640" y="435.717"/>
      <point x="515.284" y="560"/>
      <point x="352" y="560" type="curve" smooth="yes"/>
      <point x="257.673" y="560"/>
      <point x="182.841" y="522.758"/>
      <point x="137" y="453" type="curve"/>
      <point x="137" y="547" type="line"/>
      <point x="63" y="547" type="line"/>
    </contour>
    <contour>
      <point x="349" y="55" type="curve" smooth="yes"/>
      <point x="226.282" y="55"/>
      <point x="132" y="149.717"/>
      <point x="132" y="273" type="curve" smooth="yes"/>
      <point x="132" y="395.902"/>
      <point x="225.904" y="492"/>
      <point x="346" y="492" type="curve" smooth="yes"/>
      <point x="473.416" y="492"/>
      <point x="565" y="399.58"/>
      <point x="565" y="271" type="curve" smooth="yes"/>
      <point x="565" y="148"/>
      <point x="472" y="55"/>
    </contour>
  </outline>
</glyph>
<glyph name="s" format="2">
  <advance width="388"/>
  <unicode hex="0073"/>
  <anchor x="194" y="623" name="Anchor-0"/>
  <outline>
    <contour>
      <point x="18" y="161" type="line"/>
      <point x="19" y="55.109"/>
      <point x="87.8918" y="-13"/>
      <point x="194.001" y="-13" type="curve" smooth="yes"/>
      <point x="292.619" y="-13"/>
      <point x="361.001" y="56.6108"/>
      <point x="361.001" y="157" type="curve" smooth="yes"/>
      <point x="361.001" y="225.661"/>
      <point x="314.992" y="280.764"/>
      <point x="233.918" y="309.201" type="curve" smooth="yes"/>
      <point x="151.848" y="337.987"/>
      <point x="113.001" y="373.886"/>
      <point x="113.001" y="420.942" type="curve" smooth="yes"/>
      <point x="113.001" y="462.73"/>
      <point x="145.542" y="492"/>
      <point x="192.001" y="492" type="curve" smooth="yes"/>
      <point x="240.001" y="492"/>
      <point x="268.001" y="464"/>
      <point x="272.001" y="412" type="curve"/>
      <point x="347.001" y="412" type="line"/>
      <point x="344.011" y="499.718"/>
      <point x="281.285" y="560"/>
      <point x="193.001" y="560" type="curve" smooth="yes"/>
      <point x="100.621" y="560"/>
      <point x="38.001" y="497.784"/>
      <point x="38.001" y="406" type="curve" smooth="yes"/>
      <point x="38.001" y="333.908"/>
      <point x="73.9299" y="295.702"/>
      <point x="180.001" y="255" type="curve" smooth="yes"/>
      <point x="264.198" y="222.692"/>
      <point x="286.001" y="201.094"/>
      <point x="286.001" y="150" type="curve" smooth="yes"/>
      <point x="286.001" y="94.6196"/>
      <point x="247.633" y="55"/>
      <point x="194.001" y="55" type="curve" smooth="yes"/>
      <point x="131.963" y="55"/>
      <point x="94.9986" y="93.0413"/>
      <point x="91.001" y="161" type="curve"/>
    </contour>
  </outline>
</glyph>
<glyph name="asciitilde" format="2">
  <advance width="606"/>
  <unicode hex="007E"/>
  <outline>
    <contour>
      <point x="93" y="210" type="line"/>
      <point x="131.272" y="274.457"/>
      <point x="159.936" y="300"/>
      <point x="194" y="300" type="curve" smooth="yes"/>
      <point x="212.436" y="300"/>
      <point x="219.787" y="297.885"/>
      <point x="267" y="279" type="curve" smooth="yes"/>
      <point x="322" y="257" type="line"/>
      <point x="365.117" y="238.381"/>
      <point x="391.519" y="231"/>
      <point x="415" y="231" type="curve" smooth="yes"/>
      <point x="466" y="231"/>
      <point x="521" y="275"/>
      <point x="555" y="343" type="curve"/>
      <point x="511" y="390" type="line"/>
      <point x="477.612" y="333.044"/>
      <point x="448.598" y="308"/>
      <point x="416" y="308" type="curve" smooth="yes"/>
      <point x="396.219" y="308"/>
      <point x="380.471" y="312.527"/>
      <point x="336" y="331" type="curve" smooth="yes"/>
      <point x="271" y="358" type="line" smooth="yes"/>
      <point x="240.483" y="370.676"/>
      <point x="214.855" y="377"/>
      <point x="194" y="377" type="curve" smooth="yes"/>
      <point x="138.758" y="377"/>
      <point x="99.6681" y="344.197"/>
      <point x="51" y="257" type="curve"/>
    </contour>
  </outline>
</glyph>
<glyph name="cent" format="2">
  <advance width="554"/>
  <unicode hex="00A2"/>
  <outline>
    <contour>
      <point x="259" y="62" type="line"/>
      <point x="325" y="62" type="line"/>
      <point x="325" y="151" type="line"/>
      <point x="405.345" y="162.047"/>
      <point x="476.115" y="217.312"/>
      <point x="503" y="290" type="curve"/>
      <point x="422" y="290" type="line"/>
      <point x="376.887" y="237.87"/>
      <point x="336.863" y="217"/>
      <point x="282" y="217" type="curve" smooth="yes"/>
      <point x="190.84" y="217"/>
      <point x="119" y="290.163"/>
      <point x="119" y="383" type="curve" smooth="yes"/>
      <point x="119" y="477"/>
      <point x="189" y="547"/>
      <point x="283" y="547" type="curve" smooth="yes"/>
      <point x="345.815" y="547"/>
      <point x="394.909" y="518.162"/>
      <point x="426" y="463" type="curve"/>
      <point x="509" y="463" type="line"/>
      <point x="479.907" y="545.264"/>
      <point x="410.725" y="602.038"/>
      <point x="325" y="614" type="curve"/>
      <point x="325" y="707" type="line"/>
      <point x="259" y="707" type="line"/>
      <point x="259" y="614" type="line"/>
      <point x="131.838" y="600.983"/>
      <point x="45" y="506.841"/>
      <point x="45" y="382" type="curve" smooth="yes"/>
      <point x="45" y="259.114"/>
      <point x="135.885" y="161.009"/>
      <point x="259" y="151" type="curve"/>
    </contour>
  </outline>
</glyph>
<glyph name="currency" format="2">
  <advance width="554"/>
  <unicode hex="00A4"/>
  <outline>
    <contour>
      <point x="84" y="58" type="line"/>
      <point x="126" y="100" type="line"/>
      <point x="180" y="63"/>
      <point x="219" y="50"/>
      <point x="276" y="50" type="curve" smooth="yes"/>
      <point x="333.26" y="50"/>
      <point x="370.262" y="62.1718"/>
      <point x="428" y="100" type="curve"/>
      <point x="469" y="58" type="line"/>
      <point x="523" y="111" type="line"/>
      <point x="481" y="153" type="line"/>
      <point x="512.463" y="190.362"/>
      <point x="528" y="238.957"/>
      <point x="528" y="300" type="curve" smooth="yes"/>
      <point x="528" y="358.37"/>
      <point x="514.349" y="403.476"/>
      <point x="482" y="452" type="curve"/>
      <point x="523" y="494" type="line"/>
      <point x="469" y="549" type="line"/>
      <point x="426" y="507" type="line"/>
      <point x="381.648" y="538.248"/>
      <point x="333.543" y="553"/>
      <point x="276" y="553" type="curve" smooth="yes"/>
      <point x="220.606" y="553"/>
      <point x="180.587" y="540.376"/>
      <point x="127" y="506" type="curve"/>
      <point x="84" y="548" type="line"/>
      <point x="29" y="494" type="line"/>
      <point x="73" y="452" type="line"/>
      <point x="39.8922" y="405.85"/>
      <point x="26" y="361.809"/>
      <point x="26" y="303" type="curve" smooth="yes"/>
      <point x="26" y="243.826"/>
      <point x="40.0938" y="197.868"/>
      <point x="72" y="153" type="curve"/>
      <point x="31" y="112" type="line"/>
    </contour>
    <contour>
      <point x="97" y="302" type="curve" smooth="yes"/>
      <point x="97" y="404.851"/>
      <point x="173.854" y="483"/>
      <point x="275" y="483" type="curve" smooth="yes"/>
      <point x="382.296" y="483"/>
      <point x="457" y="408.706"/>
      <point x="457" y="302" type="curve" smooth="yes"/>
      <point x="457" y="199.933"/>
      <point x="379.933" y="122"/>
      <point x="279" y="122" type="curve" smooth="yes"/>
      <point x="174.928" y="122"/>
      <point x="97" y="199.071"/>
    </contour>
  </outline>
</glyph>
<glyph name="registered" format="2">
  <advance width="747"/>
  <unicode hex="00AE"/>
  <outline>
    <contour>
      <point x="248" y="157" type="line"/>
      <point x="309" y="157" type="line"/>
      <point x="309" y="359" type="line"/>
      <point x="454" y="157" type="line"/>
      <point x="530" y="157" type="line"/>
      <point x="409" y="317" type="line"/>
      <point x="492.009" y="328.001"/>
      <point x="534" y="372.008"/>
      <point x="534" y="448" type="curve" smooth="yes"/>
      <point x="534" y="535.793"/>
      <point x="478.687" y="585"/>
      <point x="380" y="585" type="curve" smooth="yes"/>
      <point x="248" y="585" type="line"/>
    </contour>
    <contour>
      <point x="309" y="365" type="line"/>
      <point x="309" y="527" type="line"/>
      <point x="376" y="527" type="line" smooth="yes"/>
      <point x="433.861" y="527"/>
      <point x="471" y="496.116"/>
      <point x="471" y="448" type="curve" smooth="yes"/>
      <point x="471" y="393.919"/>
      <point x="429.886" y="365"/>
      <point x="353" y="365" type="curve" smooth="yes"/>
    </contour>
    <contour>
      <point x="-9" y="369" type="curve" smooth="yes"/>
      <point x="-9" y="158"/>
      <point x="162" y="-13"/>
      <point x="373" y="-13" type="curve" smooth="yes"/>
      <point x="584" y="-13"/>
      <point x="755" y="158"/>
      <point x="755" y="369" type="curve" smooth="yes"/>
      <point x="755" y="578.639"/>
      <point x="584.355" y="752"/>
      <point x="378" y="752" type="curve" smooth="yes"/>
      <point x="161.383" y="752"/>
      <point x="-9" y="583.379"/>
    </contour>
    <contour>
      <point x="47" y="369" type="curve" smooth="yes"/>
      <point x="47" y="549.96"/>
      <point x="192.961" y="700"/>
      <point x="369" y="700" type="curve" smooth="yes"/>
      <point x="553.721" y="700"/>
      <point x="699" y="554.28"/>
      <point x="699" y="369" type="curve" smooth="yes"/>
      <point x="699" y="186.896"/>
      <point x="552.897" y="39"/>
      <point x="373" y="39" type="curve" smooth="yes"/>
      <point x="193.103" y="39"/>
      <point x="47" y="186.896"/>
    </contour>
  </outline>
</glyph>
<glyph name="threesuperior" format="2">
  <advance width="332"/>
  <unicode hex="00B3"/>
  <outline>
    <contour>
      <point x="13" y="439" type="line"/>
      <point x="18.0705" y="340.126"/>
      <point x="75.9276" y="280"/>
      <point x="166" y="280" type="curve" smooth="yes"/>
      <point x="249.133" y="280"/>
      <point x="319" y="347.127"/>
      <point x="319" y="427" type="curve" smooth="yes"/>
      <point x="319" y="477.45"/>
      <point x="295.584" y="517.256"/>
      <point x="249" y="546" type="curve"/>
      <point x="280" y="574"/>
      <point x="290" y="594"/>
      <point x="290" y="628" type="curve" smooth="yes"/>
      <point x="290" y="694.878"/>
      <point x="236.126" y="747"/>
      <point x="167" y="747" type="curve" smooth="yes"/>
      <point x="92.4242" y="747"/>
      <point x="44.0057" y="695.458"/>
      <point x="43" y="615" type="curve"/>
      <point x="104" y="615" type="line"/>
      <point x="104" y="663.854"/>
      <point x="126.663" y="692"/>
      <point x="166" y="692" type="curve" smooth="yes"/>
      <point x="202.074" y="692"/>
      <point x="229" y="665.929"/>
      <point x="229" y="631" type="curve" smooth="yes"/>
      <point x="229" y="593.111"/>
      <point x="199.15" y="571"/>
      <point x="148" y="571" type="curve" smooth="yes"/>
      <point x="128" y="571" type="line"/>
      <point x="128" y="517" type="line"/>
      <point x="134.659" y="517" type="line" smooth="yes"/>
      <point x="215.237" y="517"/>
      <point x="258" y="485.103"/>
      <point x="258" y="425" type="curve" smooth="yes"/>
      <point x="258" y="376.806"/>
      <point x="214.8" y="335"/>
      <point x="165" y="335" type="curve" smooth="yes"/>
      <point x="112.069" y="335"/>
      <point x="77.3876" y="374.636"/>
      <point x="74" y="439" type="curve"/>
    </contour>
  </outline>
</glyph>
<glyph name="onehalf" format="2">
  <advance width="831"/>
  <unicode hex="00BD"/>
  <outline>
    <contour>
      <point x="171" y="288" type="line"/>
      <point x="231" y="288" type="line"/>
      <point x="231" y="739" type="line"/>
      <point x="96" y="739" type="line"/>
      <point x="96" y="684" type="line"/>
      <point x="171" y="684" type="line"/>
    </contour>
    <contour>
      <point x="206" y="0" type="line"/>
      <point x="260" y="0" type="line"/>
      <point x="602" y="739" type="line"/>
      <point x="547" y="739" type="line"/>
    </contour>
    <contour>
      <point x="506" y="0" type="line"/>
      <point x="812" y="0" type="line"/>
      <point x="812" y="55" type="line"/>
      <point x="595" y="55" type="line"/>
      <point x="728" y="176" type="line" smooth="yes"/>
      <point x="791.413" y="233.692"/>
      <point x="814" y="270.986"/>
      <point x="814" y="318" type="curve" smooth="yes"/>
      <point x="814" y="396.272"/>
      <point x="747.713" y="459"/>
      <point x="665" y="459" type="curve" smooth="yes"/>
      <point x="568.493" y="459"/>
      <point x="510" y="397.11"/>
      <point x="510" y="295" type="curve"/>
      <point x="570" y="295" type="line"/>
      <point x="570" y="364.92"/>
      <point x="602.985" y="404"/>
      <point x="662" y="404" type="curve" smooth="yes"/>
      <point x="711.917" y="404"/>
      <point x="753" y="366.077"/>
      <point x="753" y="320" type="curve" smooth="yes"/>
      <point x="753" y="287.211"/>
      <point x="735.051" y="261.784"/>
      <point x="669" y="201" type="curve" smooth="yes"/>
      <point x="506" y="51" type="line"/>
    </contour>
  </outline>
</glyph>
<glyph name="questiondown" format="2">
  <advance width="591"/>
  <unicode hex="00BF"/>
  <outline>
    <contour>
      <point x="456" y="39" type="line"/>
      <point x="448.52" y="-75.6872"/>
      <point x="391.136" y="-138"/>
      <point x="293" y="-138" type="curve" smooth="yes"/>
      <point x="204.047" y="-138"/>
      <point x="140" y="-76.0458"/>
      <point x="140" y="10" type="curve" smooth="yes"/>
      <point x="140" y="58.6014"/>
      <point x="155.852" y="85.0221"/>
      <point x="224" y="150" type="curve" smooth="yes"/>
      <point x="298.637" y="221.166"/>
      <point x="329" y="275.819"/>
      <point x="329" y="339" type="curve" smooth="yes"/>
      <point x="329" y="354" type="line"/>
      <point x="258.841" y="354" type="line"/>
      <point x="258.841" y="347.305" type="line" smooth="yes"/>
      <point x="258.841" y="293.52"/>
      <point x="233.024" y="252.022"/>
      <point x="156" y="182" type="curve" smooth="yes"/>
      <point x="89.8299" y="121.845"/>
      <point x="66" y="76.8333"/>
      <point x="66" y="12" type="curve" smooth="yes"/>
      <point x="66" y="-113.892"/>
      <point x="160.887" y="-205"/>
      <point x="292" y="-205" type="curve" smooth="yes"/>
      <point x="433.439" y="-205"/>
      <point x="523.73" y="-110.851"/>
      <point x="526" y="39" type="curve"/>
    </contour>
    <contour>
      <point x="256" y="421" type="line"/>
      <point x="330" y="421" type="line"/>
      <point x="330" y="547" type="line"/>
      <point x="256" y="547" type="line"/>
    </contour>
  </outline>
</glyph>
<glyph name="Ntilde" format="2">
  <advance width="740"/>
  <unicode hex="00D1"/>
  <anchor x="370" y="987" name="Anchor-0"/>
  <outline>
    <contour>
      <point x="76" y="0" type="line"/>
      <point x="150" y="0" type="line"/>
      <point x="150" y="650" type="line"/>
      <point x="590" y="0" type="line"/>
      <point x="664" y="0" type="line"/>
      <point x="664" y="739" type="line"/>
      <point x="590" y="739" type="line"/>
      <point x="590" y="126" type="line"/>
      <point x="176" y="739" type="line"/>
      <point x="76" y="739" type="line"/>
    </contour>
    <contour>
      <point x="265" y="815" type="line"/>
      <point x="284.665" y="836.231"/>
      <point x="304.856" y="847"/>
      <point x="325" y="847" type="curve" smooth="yes"/>
      <point x="334.234" y="847"/>
      <point x="348.508" y="843.432"/>
      <point x="365" y="837" type="curve" smooth="yes"/>
      <point x="402.691" y="822.301"/>
      <point x="420.59" y="815"/>
      <point x="438.163" y="815" type="curve" smooth="yes"/>
      <point x="468.906" y="815"/>
      <point x="504.732" y="835.939"/>
      <point x="522" y="864" type="curve"/>
      <point x="489" y="910" type="line"/>
      <point x="468.244" y="888.255"/>
      <point x="451.226" y="879"/>
      <point x="432" y="879" type="curve" smooth="yes"/>
      <point x="422.344" y="879"/>
      <point x="402.013" y="884.93"/>
      <point x="384" y="893" type="curve" smooth="yes"/>
      <point x="358.577" y="904.39"/>
      <point x="339.107" y="910"/>
      <point x="325" y="910" type="curve" smooth="yes"/>
      <point x="289.082" y="910"/>
      <point x="255.052" y="892.071"/>
      <point x="232" y="861" type="curve"/>
    </contour>
  </outline>
</glyph>
<glyph name="Ograve" format="2">
  <advance width="869"/>
  <unicode hex="00D2"/>
  <anchor x="434" y="987" name="Anchor-0"/>
  <outline>
    <component base="O"/>
    <contour>
      <point x="286" y="900" type="line"/>
      <point x="483" y="792" type="line"/>
      <point x="516" y="848" type="line"/>
      <point x="318" y="958" type="line"/>
    </contour>
  </outline>
</glyph>
<glyph name="Oacute" format="2">
  <advance width="869"/>
  <unicode hex="00D3"/>
  <anchor x="434" y="987" name="Anchor-0"/>
  <outline>
    <component base="O"/>
    <contour>
      <point x="388" y="792" type="line"/>
      <point x="581" y="906" type="line"/>
      <point x="547" y="964" type="line"/>
      <point x="354" y="848" type="line"/>
    </contour>
  </outline>
</glyph>
<glyph name="Ocircumflex" format="2">
  <advance width="869"/>
  <unicode hex="00D4"/>
  <anchor x="434" y="987" name="Anchor-0"/>
  <outline>
    <component base="O"/>
    <contour>
      <point x="257" y="805" type="line"/>
      <point x="348" y="805" type="line"/>
      <point x="436" y="879" type="line"/>
      <point x="522" y="805" type="line"/>
      <point x="611" y="805" type="line"/>
      <point x="468" y="931" type="line"/>
      <point x="402" y="931" type="line"/>
    </contour>
  </outline>
</glyph>
<glyph name="Otilde" format="2">
  <advance width="869"/>
  <unicode hex="00D5"/>
  <anchor x="434" y="987" name="Anchor-0"/>
  <outline>
    <component base="O"/>
    <contour>
      <point x="333" y="815" type="line"/>
      <point x="359.021" y="837.303"/>
      <point x="377.202" y="847"/>
      <point x="393" y="847" type="curve" smooth="yes"/>
      <point x="404.365" y="847"/>
      <point x="418.721" y="843.411"/>
      <point x="433" y="837" type="curve" smooth="yes"/>
      <point x="471.758" y="819.599"/>
      <point x="485.553" y="815"/>
      <point x="499" y="815" type="curve" smooth="yes"/>
      <point x="531.643" y="815"/>
      <point x="573.823" y="837.712"/>
      <point x="590" y="864" type="curve"/>
      <point x="557" y="910" type="line"/>
      <point x="536.244" y="888.255"/>
      <point x="519.226" y="879"/>
      <point x="500" y="879" type="curve" smooth="yes"/>
      <point x="491.289" y="879"/>
      <point x="469.422" y="885.378"/>
      <point x="452" y="893" type="curve" smooth="yes"/>
      <point x="419.057" y="907.413"/>
      <point x="410.077" y="910"/>
      <point x="393" y="910" type="curve" smooth="yes"/>
      <point x="357.082" y="910"/>
      <point x="323.052" y="892.071"/>
      <point x="300" y="861" type="curve"/>
    </contour>
  </outline>
</glyph>
<glyph name="Odieresis" format="2">
  <advance width="869"/>
  <unicode hex="00D6"/>
  <anchor x="434" y="987" name="Anchor-0"/>
  <outline>
    <component base="O"/>
    <contour>
      <point x="324" y="805" type="line"/>
      <point x="398" y="805" type="line"/>
      <point x="398" y="931" type="line"/>
      <point x="324" y="931" type="line"/>
    </contour>
    <contour>
      <point x="471" y="805" type="line"/>
      <point x="545" y="805" type="line"/>
      <point x="545" y="931" type="line"/>
      <point x="471" y="931" type="line"/>
    </contour>
  </outline>
</glyph>
<glyph name="Uacute" format="2">
  <advance width="655"/>
  <unicode hex="00DA"/>
  <anchor x="327" y="987" name="Anchor-0"/>
  <outline>
    <component base="U"/>
    <contour>
      <point x="281" y="792" type="line"/>
      <point x="474" y="906" type="line"/>
      <point x="440" y="964" type="line"/>
      <point x="247" y="848" type="line"/>
    </contour>
  </outline>
</glyph>
<glyph name="germandbls" format="2">
  <advance width="554"/>
  <unicode hex="00DF"/>
  <anchor x="263" y="805" name="Anchor-0"/>
  <outline>
    <contour>
      <point x="59" y="0" type="line"/>
      <point x="133" y="0" type="line"/>
      <point x="133" y="109" type="line"/>
      <point x="169.895" y="28.2303"/>
      <point x="232.754" y="-13"/>
      <point x="319" y="-13" type="curve" smooth="yes"/>
      <point x="436.986" y="-13"/>
      <point x="524" y="76.9854"/>
      <point x="524" y="199" type="curve" smooth="yes"/>
      <point x="524" y="294.426"/>
      <point x="476.609" y="361.124"/>
      <point x="389" y="389" type="curve"/>
      <point x="447.761" y="423.858"/>
      <point x="474" y="471.706"/>
      <point x="474" y="544" type="curve" smooth="yes"/>
      <point x="474" y="663.14"/>
      <point x="383.858" y="752"/>
      <point x="263" y="752" type="curve" smooth="yes"/>
      <point x="127.511" y="752"/>
      <point x="59" y="660.987"/>
      <point x="59" y="481" type="curve" smooth="yes"/>
    </contour>
    <contour>
      <point x="133" y="203" type="line"/>
      <point x="133" y="481" type="line" smooth="yes"/>
      <point x="133" y="617.478"/>
      <point x="175.928" y="684"/>
      <point x="264" y="684" type="curve" smooth="yes"/>
      <point x="341.713" y="684"/>
      <point x="399" y="626.289"/>
      <point x="399" y="548" type="curve" smooth="yes"/>
      <point x="399" y="461.79"/>
      <point x="336.757" y="408"/>
      <point x="237" y="408" type="curve" smooth="yes"/>
      <point x="224" y="408" type="line"/>
      <point x="224" y="341" type="line"/>
      <point x="250.571" y="342.714"/>
      <point x="257" y="343"/>
      <point x="269" y="343" type="curve" smooth="yes"/>
      <point x="382.212" y="343"/>
      <point x="449" y="288.828"/>
      <point x="449" y="197" type="curve" smooth="yes"/>
      <point x="449" y="116.659"/>
      <point x="391.683" y="55"/>
      <point x="317" y="55" type="curve" smooth="yes"/>
      <point x="240.909" y="55"/>
      <point x="185.998" y="116.104"/>
      <point x="184" y="203" type="curve"/>
    </contour>
  </outline>
</glyph>
<glyph name="agrave" format="2">
  <advance width="683"/>
  <unicode hex="00E0"/>
  <anchor x="351" y="805" name="Anchor-0"/>
  <outline>
    <contour>
      <point x="546" y="0" type="line"/>
      <point x="620" y="0" type="line"/>
      <point x="620" y="547" type="line"/>
      <point x="546" y="547" type="line"/>
      <point x="546" y="450" type="line"/>
      <point x="491.343" y="526.52"/>
      <point x="425.6" y="560"/>
      <point x="330" y="560" type="curve" smooth="yes"/>
      <point x="166" y="560"/>
      <point x="42" y="436"/>
      <point x="42" y="272" type="curve" smooth="yes"/>
      <point x="42" y="108.087"/>
      <point x="166.911" y="-13"/>
      <point x="336" y="-13" type="curve" smooth="yes"/>
      <point x="428.638" y="-13"/>
      <point x="487.772" y="17.6937"/>
      <point x="546" y="96" type="curve"/>
    </contour>
    <contour>
      <point x="335" y="55" type="curve" smooth="yes"/>
      <point x="213.559" y="55"/>
      <point x="117" y="152.445"/>
      <point x="117" y="275" type="curve" smooth="yes"/>
      <point x="117" y="394.88"/>
      <point x="211.882" y="492"/>
      <point x="329" y="492" type="curve" smooth="yes"/>
      <point x="453" y="492"/>
      <point x="546" y="399"/>
      <point x="546" y="275" type="curve" smooth="yes"/>
      <point x="546" y="150.962"/>
      <point x="453.964" y="55"/>
    </contour>
    <contour>
      <point x="203" y="718" type="line"/>
      <point x="400" y="610" type="line"/>
      <point x="433" y="666" type="line"/>
      <point x="235" y="776" type="line"/>
    </contour>
  </outline>
</glyph>
<glyph name="acircumflex" format="2">
  <advance width="683"/>
  <unicode hex="00E2"/>
  <anchor x="351" y="805" name="Anchor-0"/>
  <outline>
    <component base="a"/>
    <contour>
      <point x="174" y="623" type="line"/>
      <point x="265" y="623" type="line"/>
      <point x="353" y="697" type="line"/>
      <point x="439" y="623" type="line"/>
      <point x="528" y="623" type="line"/>
      <point x="385" y="749" type="line"/>
      <point x="319" y="749" type="line"/>
    </contour>
  </outline>
</glyph>
<glyph name="aring" format="2">
  <advance width="683"/>
  <unicode hex="00E5"/>
  <anchor x="351" y="820" name="Anchor-0"/>
  <outline>
    <component base="a"/>
    <contour>
      <point x="259" y="701" type="curve" smooth="yes"/>
      <point x="259" y="650.777"/>
      <point x="300.225" y="610"/>
      <point x="351" y="610" type="curve" smooth="yes"/>
      <point x="402" y="610"/>
      <point x="443" y="651"/>
      <point x="443" y="702" type="curve" smooth="yes"/>
      <point x="443" y="752.275"/>
      <point x="401.728" y="794"/>
      <point x="352" y="794" type="curve" smooth="yes"/>
      <point x="300" y="794"/>
      <point x="259" y="753"/>
    </contour>
    <contour>
      <point x="300" y="701" type="curve" smooth="yes"/>
      <point x="300" y="729.54"/>
      <point x="322.558" y="753"/>
      <point x="350" y="753" type="curve" smooth="yes"/>
      <point x="379" y="753"/>
      <point x="402" y="730"/>
      <point x="402" y="701" type="curve" smooth="yes"/>
      <point x="402" y="673.775"/>
      <point x="378.77" y="651"/>
      <point x="351" y="651" type="curve" smooth="yes"/>
      <point x="322.72" y="651"/>
      <point x="300" y="673.275"/>
    </contour>
  </outline>
</glyph>
<glyph name="ae" format="2">
  <advance width="1157"/>
  <unicode hex="00E6"/>
  <anchor x="582" y="623" name="Anchor-0"/>
  <outline>
    <contour>
      <point x="548" y="0" type="line"/>
      <point x="619" y="0" type="line"/>
      <point x="619" y="92" type="line"/>
      <point x="679.115" y="21.8654"/>
      <point x="752.167" y="-13"/>
      <point x="839" y="-13" type="curve" smooth="yes"/>
      <point x="959.882" y="-13"/>
      <point x="1066.96" y="63.8888"/>
      <point x="1105" y="178" type="curve"/>
      <point x="1028" y="178" type="line"/>
      <point x="997.045" y="103.109"/>
      <point x="923.122" y="55"/>
      <point x="839" y="55" type="curve" smooth="yes"/>
      <point x="725.625" y="55"/>
      <point x="632.967" y="137.363"/>
      <point x="623" y="247" type="curve"/>
      <point x="1116" y="247" type="line"/>
      <point x="1117.87" y="260.56"/>
      <point x="1118.79" y="274.121"/>
      <point x="1118.77" y="287.606" type="curve" smooth="yes"/>
      <point x="1118.52" y="444.325"/>
      <point x="997.592" y="560"/>
      <point x="834" y="560" type="curve" smooth="yes"/>
      <point x="745.343" y="560"/>
      <point x="678.229" y="526.287"/>
      <point x="619" y="452" type="curve"/>
      <point x="619" y="547" type="line"/>
      <point x="548" y="547" type="line"/>
      <point x="548" y="452" type="line"/>
      <point x="493.822" y="526.244"/>
      <point x="425.685" y="560"/>
      <point x="330" y="560" type="curve" smooth="yes"/>
      <point x="165.54" y="560"/>
      <point x="42" y="436.46"/>
      <point x="42" y="272" type="curve" smooth="yes"/>
      <point x="42" y="110.135"/>
      <point x="166.863" y="-13"/>
      <point x="331" y="-13" type="curve" smooth="yes"/>
      <point x="421.967" y="-13"/>
      <point x="485.977" y="17.9729"/>
      <point x="548" y="92" type="curve"/>
    </contour>
    <contour>
      <point x="333" y="55" type="curve" smooth="yes"/>
      <point x="212.123" y="55"/>
      <point x="118" y="150.874"/>
      <point x="118" y="274" type="curve" smooth="yes"/>
      <point x="118" y="397.42"/>
      <point x="210.411" y="492"/>
      <point x="331" y="492" type="curve" smooth="yes"/>
      <point x="458.163" y="492"/>
      <point x="550" y="401.84"/>
      <point x="550" y="277" type="curve" smooth="yes"/>
      <point x="550" y="151.083"/>
      <point x="456.081" y="55"/>
    </contour>
    <contour>
      <point x="626" y="314" type="line"/>
      <point x="642.083" y="419.547"/>
      <point x="727.562" y="492"/>
      <point x="836" y="492" type="curve" smooth="yes"/>
      <point x="943.208" y="492"/>
      <point x="1026.04" y="421.791"/>
      <point x="1046" y="314" type="curve"/>
    </contour>
  </outline>
</glyph>
<glyph name="ccedilla" format="2">
  <advance width="647"/>
  <unicode hex="00E7"/>
  <anchor x="335" y="623" name="Anchor-0"/>
  <outline>
    <contour>
      <point x="257" y="-151" type="line"/>
      <point x="266.89" y="-197.482"/>
      <point x="298.493" y="-224"/>
      <point x="344" y="-224" type="curve" smooth="yes"/>
      <point x="396.317" y="-224"/>
      <point x="433" y="-185.669"/>
      <point x="433" y="-131" type="curve" smooth="yes"/>
      <point x="433" y="-83.1039"/>
      <point x="402.1" y="-51"/>
      <point x="356" y="-51" type="curve" smooth="yes"/>
      <point x="343.786" y="-51"/>
      <point x="336.734" y="-52.5426"/>
      <point x="324" y="-58" type="curve"/>
      <point x="343" y="-13" type="line"/>
      <point x="461.296" y="-13"/>
      <point x="553.203" y="47.3466"/>
      <point x="608" y="161" type="curve"/>
      <point x="524" y="161" type="line"/>
      <point x="466.658" y="84.5442"/>
      <point x="414.538" y="55"/>
      <point x="337" y="55" type="curve" smooth="yes"/>
      <point x="213.94" y="55"/>
      <point x="117" y="151.059"/>
      <point x="117" y="273" type="curve" smooth="yes"/>
      <point x="117" y="396.062"/>
      <point x="212.062" y="492"/>
      <point x="334" y="492" type="curve" smooth="yes"/>
      <point x="415.122" y="492"/>
      <point x="482.063" y="452.892"/>
      <point x="524" y="381" type="curve"/>
      <point x="607" y="381" type="line"/>
      <point x="562.848" y="491.379"/>
      <point x="458.575" y="560"/>
      <point x="335" y="560" type="curve" smooth="yes"/>
      <point x="171.268" y="560"/>
      <point x="42" y="434.261"/>
      <point x="42" y="275" type="curve" smooth="yes"/>
      <point x="42" y="124.083"/>
      <point x="151.915" y="5.00883"/>
      <point x="306" y="-11" type="curve"/>
      <point x="271" y="-90" type="line"/>
      <point x="301" y="-108" type="line"/>
      <point x="314.8" y="-90.2571"/>
      <point x="325.75" y="-84"/>
      <point x="343" y="-84" type="curve" smooth="yes"/>
      <point x="370.824" y="-84"/>
      <point x="390" y="-104.809"/>
      <point x="390" y="-135" type="curve" smooth="yes"/>
      <point x="390" y="-162.3"/>
      <point x="371.707" y="-181"/>
      <point x="345" y="-181" type="curve" smooth="yes"/>
      <point x="322.543" y="-181"/>
      <point x="306.88" y="-168.541"/>
      <point x="301" y="-146" type="curve"/>
    </contour>
  </outline>
</glyph>
<glyph name="ecircumflex" format="2">
  <advance width="650"/>
  <unicode hex="00EA"/>
  <anchor x="329" y="805" name="Anchor-0"/>
  <outline>
    <component base="e"/>
    <contour>
      <point x="153" y="623" type="line"/>
      <point x="244" y="623" type="line"/>
      <point x="332" y="697" type="line"/>
      <point x="418" y="623" type="line"/>
      <point x="507" y="623" type="line"/>
      <point x="364" y="749" type="line"/>
      <point x="298" y="749" type="line"/>
    </contour>
  </outline>
</glyph>
<glyph name="edieresis" format="2">
  <advance width="650"/>
  <unicode hex="00EB"/>
  <anchor x="329" y="805" name="Anchor-0"/>
  <outline>
    <component base="e"/>
    <contour>
      <point x="219" y="623" type="line"/>
      <point x="293" y="623" type="line"/>
      <point x="293" y="749" type="line"/>
      <point x="219" y="749" type="line"/>
    </contour>
    <contour>
      <point x="366" y="623" type="line"/>
      <point x="440" y="623" type="line"/>
      <point x="440" y="749" type="line"/>
      <point x="366" y="749" type="line"/>
    </contour>
  </outline>
</glyph>
<glyph name="ntilde" format="2">
  <advance width="610"/>
  <unicode hex="00F1"/>
  <anchor x="305" y="805" name="Anchor-0"/>
  <outline>
    <component base="n"/>
    <contour>
      <point x="186" y="633" type="line"/>
      <point x="205.601" y="656.294"/>
      <point x="221.925" y="665"/>
      <point x="246" y="665" type="curve" smooth="yes"/>
      <point x="257.365" y="665"/>
      <point x="271.721" y="661.411"/>
      <point x="286" y="655" type="curve" smooth="yes"/>
      <point x="324.758" y="637.599"/>
      <point x="338.553" y="633"/>
      <point x="352" y="633" type="curve" smooth="yes"/>
      <point x="384.643" y="633"/>
      <point x="426.823" y="655.712"/>
      <point x="443" y="682" type="curve"/>
      <point x="410" y="728" type="line"/>
      <point x="389.244" y="706.255"/>
      <point x="372.226" y="697"/>
      <point x="353" y="697" type="curve" smooth="yes"/>
      <point x="344.289" y="697"/>
      <point x="322.422" y="703.378"/>
      <point x="305" y="711" type="curve" smooth="yes"/>
      <point x="272.057" y="725.413"/>
      <point x="263.077" y="728"/>
      <point x="246" y="728" type="curve" smooth="yes"/>
      <point x="210.082" y="728"/>
      <point x="176.052" y="710.071"/>
      <point x="153" y="679" type="curve"/>
    </contour>
  </outline>
</glyph>
<glyph name="oslash" format="2">
  <advance width="653"/>
  <unicode hex="00F8"/>
  <anchor x="327" y="623" name="Anchor-0"/>
  <outline>
    <contour>
      <point x="73" y="1" type="line"/>
      <point x="126" y="-39" type="line"/>
      <point x="178" y="28" type="line"/>
      <point x="234.777" y="-2.41629"/>
      <point x="273.756" y="-13"/>
      <point x="329" y="-13" type="curve" smooth="yes"/>
      <point x="493.01" y="-13"/>
      <point x="611" y="110.011"/>
      <point x="611" y="281" type="curve" smooth="yes"/>
      <point x="611" y="362.458"/>
      <point x="584.375" y="425.652"/>
      <point x="528" y="478" type="curve"/>
      <point x="584" y="552" type="line"/>
      <point x="531" y="594" type="line"/>
      <point x="474" y="519" type="line"/>
      <point x="429.291" y="546.819"/>
      <point x="382.354" y="560"/>
      <point x="328" y="560" type="curve" smooth="yes"/>
      <point x="168.556" y="560"/>
      <point x="42" y="432.559"/>
      <point x="42" y="272" type="curve" smooth="yes"/>
      <point x="42" y="192.866"/>
      <point x="64.1015" y="137.882"/>
      <point x="124" y="68" type="curve"/>
    </contour>
    <contour>
      <point x="166" y="121" type="line"/>
      <point x="130.533" y="171.667"/>
      <point x="117" y="211.714"/>
      <point x="117" y="266" type="curve" smooth="yes"/>
      <point x="117" y="393.962"/>
      <point x="208.965" y="492"/>
      <point x="329" y="492" type="curve" smooth="yes"/>
      <point x="367" y="492"/>
      <point x="402" y="484"/>
      <point x="434" y="468" type="curve"/>
    </contour>
    <contour>
      <point x="487" y="426" type="line"/>
      <point x="521.202" y="382.744"/>
      <point x="536" y="338.653"/>
      <point x="536" y="280" type="curve" smooth="yes"/>
      <point x="536" y="146.951"/>
      <point x="448.953" y="55"/>
      <point x="323" y="55" type="curve" smooth="yes"/>
      <point x="284.125" y="55"/>
      <point x="258.129" y="60.9419"/>
      <point x="218" y="79" type="curve"/>
    </contour>
  </outline>
</glyph>
<glyph name="uacute" format="2">
  <advance width="608"/>
  <unicode hex="00FA"/>
  <anchor x="304" y="805" name="Anchor-0"/>
  <outline>
    <component base="u"/>
    <contour>
      <point x="258" y="610" type="line"/>
      <point x="451" y="724" type="line"/>
      <point x="417" y="782" type="line"/>
      <point x="224" y="666" type="line"/>
    </contour>
  </outline>
</glyph>
<glyph name="ucircumflex" format="2">
  <advance width="608"/>
  <unicode hex="00FB"/>
  <anchor x="304" y="805" name="Anchor-0"/>
  <outline>
    <component base="u"/>
    <contour>
      <point x="127" y="623" type="line"/>
      <point x="218" y="623" type="line"/>
      <point x="306" y="697" type="line"/>
      <point x="392" y="623" type="line"/>
      <point x="481" y="623" type="line"/>
      <point x="338" y="749" type="line"/>
      <point x="272" y="749" type="line"/>
    </contour>
  </outline>
</glyph>
<glyph name="udieresis" format="2">
  <advance width="608"/>
  <unicode hex="00FC"/>
  <anchor x="304" y="805" name="Anchor-0"/>
  <outline>
    <component base="u"/>
    <contour>
      <point x="194" y="623" type="line"/>
      <point x="268" y="623" type="line"/>
      <point x="268" y="749" type="line"/>
      <point x="194" y="749" type="line"/>
    </contour>
    <contour>
      <point x="341" y="623" type="line"/>
      <point x="415" y="623" type="line"/>
      <point x="415" y="749" type="line"/>
      <point x="341" y="749" type="line"/>
    </contour>
  </outline>
</glyph>
<glyph name="OE" format="2">
  <advance width="1194"/>
  <unicode hex="0152"/>
  <anchor x="695" y="805" name="Anchor-0"/>
  <outline>
    <contour>
      <point x="445" y="-13" type="curve" smooth="yes"/>
      <point x="579.866" y="-13"/>
      <point x="683.939" y="43.8935"/>
      <point x="745" y="151" type="curve"/>
      <point x="745" y="0" type="line"/>
      <point x="1138" y="0" type="line"/>
      <point x="1138" y="67" type="line"/>
      <point x="819" y="67" type="line"/>
      <point x="819" y="340" type="line"/>
      <point x="1127" y="340" type="line"/>
      <point x="1127" y="407" type="line"/>
      <point x="819" y="407" type="line"/>
      <point x="819" y="672" type="line"/>
      <point x="1138" y="672" type="line"/>
      <point x="1138" y="739" type="line"/>
      <point x="745" y="739" type="line"/>
      <point x="745" y="592" type="line"/>
      <point x="683.11" y="694.818"/>
      <point x="571.247" y="752"/>
      <point x="432" y="752" type="curve" smooth="yes"/>
      <point x="209.997" y="752"/>
      <point x="44" y="588.997"/>
      <point x="44" y="371" type="curve" smooth="yes"/>
      <point x="44" y="149.897"/>
      <point x="214.108" y="-13"/>
    </contour>
    <contour>
      <point x="438" y="55" type="curve" smooth="yes"/>
      <point x="257.15" y="55"/>
      <point x="119" y="191.851"/>
      <point x="119" y="371" type="curve" smooth="yes"/>
      <point x="119" y="549.929"/>
      <point x="250.93" y="684"/>
      <point x="427" y="684" type="curve" smooth="yes"/>
      <point x="614.764" y="684"/>
      <point x="746" y="555.232"/>
      <point x="746" y="371" type="curve" smooth="yes"/>
      <point x="746" y="188.188"/>
      <point x="616.184" y="55"/>
    </contour>
  </outline>
</glyph>
<glyph name="oe" format="2">
  <advance width="1137"/>
  <unicode hex="0153"/>
  <anchor x="571" y="623" name="Anchor-0"/>
  <outline>
    <contour>
      <point x="1012" y="179" type="line"/>
      <point x="971.962" y="95.922"/>
      <point x="909.919" y="55"/>
      <point x="824" y="55" type="curve" smooth="yes"/>
      <point x="708.718" y="55"/>
      <point x="614.671" y="139.033"/>
      <point x="608" y="248" type="curve"/>
      <point x="1096" y="248" type="line"/>
      <point x="1097" y="265"/>
      <point x="1098" y="278"/>
      <point x="1098" y="286" type="curve" smooth="yes"/>
      <point x="1098" y="441.73"/>
      <point x="976.277" y="560"/>
      <point x="816" y="560" type="curve" smooth="yes"/>
      <point x="708.274" y="560"/>
      <point x="628.145" y="512.25"/>
      <point x="571" y="414" type="curve"/>
      <point x="510.857" y="513.237"/>
      <point x="431.743" y="560"/>
      <point x="324" y="560" type="curve" smooth="yes"/>
      <point x="164.633" y="560"/>
      <point x="42" y="435.628"/>
      <point x="42" y="274" type="curve" smooth="yes"/>
      <point x="42" y="111.567"/>
      <point x="167.436" y="-13"/>
      <point x="331" y="-13" type="curve" smooth="yes"/>
      <point x="437.444" y="-13"/>
      <point x="511.249" y="33.4359"/>
      <point x="571" y="138" type="curve"/>
      <point x="616.863" y="43.2828"/>
      <point x="712.656" y="-13"/>
      <point x="828" y="-13" type="curve" smooth="yes"/>
      <point x="948.361" y="-13"/>
      <point x="1054.32" y="65.8524"/>
      <point x="1086" y="179" type="curve"/>
    </contour>
    <contour>
      <point x="331" y="55" type="curve" smooth="yes"/>
      <point x="210.128" y="55"/>
      <point x="117" y="149.869"/>
      <point x="117" y="273" type="curve" smooth="yes"/>
      <point x="117" y="397.692"/>
      <point x="205.71" y="492"/>
      <point x="323" y="492" type="curve" smooth="yes"/>
      <point x="445.848" y="492"/>
      <point x="536" y="400.155"/>
      <point x="536" y="275" type="curve" smooth="yes"/>
      <point x="536" y="149.72"/>
      <point x="447.739" y="55"/>
    </contour>
    <contour>
      <point x="608" y="315" type="line"/>
      <point x="635.047" y="425.193"/>
      <point x="713.178" y="492"/>
      <point x="815" y="492" type="curve" smooth="yes"/>
      <point x="923.98" y="492"/>
      <point x="1009" y="421.019"/>
      <point x="1027" y="315" type="curve"/>
    </contour>
  </outline>
</glyph>
<glyph name="Scaron" format="2">
  <advance width="498"/>
  <unicode hex="0160"/>
  <anchor x="259" y="987" name="Anchor-0"/>
  <outline>
    <component base="S"/>
    <contour>
      <point x="82" y="931" type="line"/>
      <point x="225" y="805" type="line"/>
      <point x="291" y="805" type="line"/>
      <point x="436" y="931" type="line"/>
      <point x="345" y="931" type="line"/>
      <point x="257" y="857" type="line"/>
      <point x="171" y="931" type="line"/>
    </contour>
  </outline>
</glyph>
<glyph name="scaron" format="2">
  <advance width="388"/>
  <unicode hex="0161"/>
  <anchor x="194" y="805" name="Anchor-0"/>
  <outline>
    <component base="s"/>
    <contour>
      <point x="17" y="749" type="line"/>
      <point x="160" y="623" type="line"/>
      <point x="226" y="623" type="line"/>
      <point x="371" y="749" type="line"/>
      <point x="280" y="749" type="line"/>
      <point x="192" y="675" type="line"/>
      <point x="106" y="749" type="line"/>
    </contour>
  </outline>
</glyph>
<glyph name="tilde" format="2">
  <advance width="439"/>
  <unicode hex="02DC"/>
  <outline>
    <contour>
      <point x="108" y="633" type="line"/>
      <point x="124.122" y="655.175"/>
      <point x="142.544" y="665"/>
      <point x="168" y="665" type="curve" smooth="yes"/>
      <point x="179.365" y="665"/>
      <point x="193.721" y="661.411"/>
      <point x="208" y="655" type="curve" smooth="yes"/>
      <point x="246.758" y="637.599"/>
      <point x="260.553" y="633"/>
      <point x="274" y="633" type="curve" smooth="yes"/>
      <point x="306.643" y="633"/>
      <point x="348.823" y="655.712"/>
      <point x="365" y="682" type="curve"/>
      <point x="332" y="728" type="line"/>
      <point x="311.244" y="706.255"/>
      <point x="294.226" y="697"/>
      <point x="275" y="697" type="curve" smooth="yes"/>
      <point x="266.289" y="697"/>
      <point x="244.422" y="703.378"/>
      <point x="227" y="711" type="curve" smooth="yes"/>
      <point x="194.057" y="725.413"/>
      <point x="185.077" y="728"/>
      <point x="168" y="728" type="curve" smooth="yes"/>
      <point x="132.082" y="728"/>
      <point x="98.0524" y="710.071"/>
      <point x="75" y="679" type="curve"/>
    </contour>
  </outline>
</glyph>
<glyph name="gravecomb" format="2">
  <unicode hex="0300"/>
  <anchor x="-328" y="805" name="Anchor-1"/>
  <anchor x="-328" y="623" name="_Anchor-1"/>
  <anchor x="-328" y="623" name="_Anchor-0"/>
  <outline>
    <contour>
      <point x="-476" y="718" type="line"/>
      <point x="-279" y="610" type="line"/>
      <point x="-246" y="666" type="line"/>
      <point x="-444" y="776" type="line"/>
    </contour>
  </outline>
</glyph>
<glyph name="acutecomb" format="2">
  <unicode hex="0301"/>
  <anchor x="-328" y="805" name="Anchor-1"/>
  <anchor x="-328" y="623" name="_Anchor-1"/>
  <anchor x="-328" y="623" name="_Anchor-0"/>
  <outline>
    <contour>
      <point x="-374" y="610" type="line"/>
      <point x="-181" y="724" type="line"/>
      <point x="-215" y="782" type="line"/>
      <point x="-408" y="666" type="line"/>
    </contour>
  </outline>
</glyph>
<glyph name="circumflexcomb" format="2">
  <unicode hex="0302"/>
  <anchor x="-328" y="805" name="Anchor-1"/>
  <anchor x="-328" y="623" name="_Anchor-1"/>
  <anchor x="-328" y="623" name="_Anchor-0"/>
  <outline>
    <contour>
      <point x="-505" y="623" type="line"/>
      <point x="-414" y="623" type="line"/>
      <point x="-326" y="697" type="line"/>
      <point x="-240" y="623" type="line"/>
      <point x="-151" y="623" type="line"/>
      <point x="-294" y="749" type="line"/>
      <point x="-360" y="749" type="line"/>
    </contour>
  </outline>
</glyph>
<glyph name="macroncomb" format="2">
  <unicode hex="0304"/>
  <anchor x="-327" y="805" name="Anchor-1"/>
  <anchor x="-327" y="623" name="_Anchor-1"/>
  <anchor x="-327" y="623" name="_Anchor-0"/>
  <outline>
    <contour>
      <point x="-496" y="643" type="line"/>
      <point x="-159" y="643" type="line"/>
      <point x="-159" y="707" type="line"/>
      <point x="-496" y="707" type="line"/>
    </contour>
  </outline>
</glyph>
<glyph name="dieresiscomb" format="2">
  <unicode hex="0308"/>
  <anchor x="-328" y="805" name="Anchor-1"/>
  <anchor x="-328" y="623" name="_Anchor-1"/>
  <anchor x="-328" y="623" name="_Anchor-0"/>
  <outline>
    <contour>
      <point x="-438" y="623" type="line"/>
      <point x="-364" y="623" type="line"/>
      <point x="-364" y="749" type="line"/>
      <point x="-438" y="749" type="line"/>
    </contour>
    <contour>
      <point x="-291" y="623" type="line"/>
      <point x="-217" y="623" type="line"/>
      <point x="-217" y="749" type="line"/>
      <point x="-291" y="749" type="line"/>
    </contour>
  </outline>
</glyph>
<glyph name="hungarumlautcomb" format="2">
  <unicode hex="030B"/>
  <anchor x="-328" y="805" name="Anchor-1"/>
  <anchor x="-328" y="623" name="_Anchor-1"/>
  <anchor x="-328" y="623" name="_Anchor-0"/>
  <outline>
    <contour>
      <point x="-482" y="610" type="line"/>
      <point x="-308" y="731" type="line"/>
      <point x="-346" y="780" type="line"/>
      <point x="-517" y="657" type="line"/>
    </contour>
    <contour>
      <point x="-286" y="610" type="line"/>
      <point x="-112" y="731" type="line"/>
      <point x="-150" y="780" type="line"/>
      <point x="-321" y="657" type="line"/>
    </contour>
  </outline>
</glyph>
<glyph name="Djecyr" format="2">
  <advance width="670"/>
  <unicode hex="0402"/>
  <anchor x="220" y="805" name="Anchor-0"/>
  <outline>
    <contour>
      <point x="176" y="0" type="line"/>
      <point x="250" y="0" type="line"/>
      <point x="250" y="373" type="line"/>
      <point x="392" y="373" type="line" smooth="yes"/>
      <point x="510.551" y="373"/>
      <point x="570" y="323.236"/>
      <point x="570" y="224" type="curve" smooth="yes"/>
      <point x="570" y="94.8349"/>
      <point x="517.635" y="54"/>
      <point x="352" y="54" type="curve"/>
      <point x="352" y="-13" type="line"/>
      <point x="567.557" y="-13"/>
      <point x="645" y="49.6416"/>
      <point x="645" y="224" type="curve" smooth="yes"/>
      <point x="645" y="365.571"/>
      <point x="559.545" y="440"/>
      <point x="397" y="440" type="curve" smooth="yes"/>
      <point x="250" y="440" type="line"/>
      <point x="250" y="672" type="line"/>
      <point x="439" y="672" type="line"/>
      <point x="439" y="739" type="line"/>
      <point x="7" y="739" type="line"/>
      <point x="7" y="672" type="line"/>
      <point x="176" y="672" type="line"/>
    </contour>
  </outline>
</glyph>
<glyph name="Eukrcyr" format="2">
  <advance width="813"/>
  <unicode hex="0404"/>
  <anchor x="428" y="805" name="Anchor-0"/>
  <outline>
    <contour>
      <point x="121" y="410" type="line"/>
      <point x="140.228" y="569.895"/>
      <point x="268.909" y="684"/>
      <point x="430" y="684" type="curve" smooth="yes"/>
      <point x="542.369" y="684"/>
      <point x="626.031" y="638.875"/>
      <point x="684" y="547" type="curve"/>
      <point x="767" y="547" type="line"/>
      <point x="710.118" y="673.738"/>
      <point x="580.317" y="752"/>
      <point x="427" y="752" type="curve" smooth="yes"/>
      <point x="207.074" y="752"/>
      <point x="44" y="588.074"/>
      <point x="44" y="367" type="curve" smooth="yes"/>
      <point x="44" y="150.778"/>
      <point x="211.226" y="-13"/>
      <point x="432" y="-13" type="curve" smooth="yes"/>
      <point x="581.85" y="-13"/>
      <point x="695.926" y="56.8629"/>
      <point x="770" y="194" type="curve"/>
      <point x="688" y="194" type="line"/>
      <point x="616.52" y="99.8841"/>
      <point x="533.532" y="55"/>
      <point x="431" y="55" type="curve" smooth="yes"/>
      <point x="269.571" y="55"/>
      <point x="134.138" y="180.418"/>
      <point x="120" y="343" type="curve"/>
      <point x="589" y="343" type="line"/>
      <point x="589" y="410" type="line"/>
    </contour>
  </outline>
</glyph>
<glyph name="Ljecyr" format="2">
  <advance width="1057"/>
  <unicode hex="0409"/>
  <anchor x="570" y="805" name="Anchor-0"/>
  <outline>
    <contour>
      <point x="11" y="0" type="line"/>
      <point x="99" y="0" type="line"/>
      <point x="543" y="644" type="line"/>
      <point x="543" y="0" type="line"/>
      <point x="747" y="0" type="line" smooth="yes"/>
      <point x="942.935" y="0"/>
      <point x="1032" y="67.5022"/>
      <point x="1032" y="216" type="curve" smooth="yes"/>
      <point x="1032" y="359.127"/>
      <point x="945.956" y="425"/>
      <point x="759" y="425" type="curve" smooth="yes"/>
      <point x="617" y="425" type="line"/>
      <point x="617" y="739" type="line"/>
      <point x="522" y="739" type="line"/>
    </contour>
    <contour>
      <point x="617" y="67" type="line"/>
      <point x="617" y="358" type="line"/>
      <point x="754" y="358" type="line" smooth="yes"/>
      <point x="896.558" y="358"/>
      <point x="957" y="315.423"/>
      <point x="957" y="215" type="curve" smooth="yes"/>
      <point x="957" y="66.6818"/>
      <point x="833.759" y="67"/>
      <point x="722" y="67" type="curve" smooth="yes"/>
    </contour>
  </outline>
</glyph>
<glyph name="Gecyr" format="2">
  <advance width="444"/>
  <unicode hex="0413"/>
  <anchor x="258" y="805" name="Anchor-0"/>
  <outline>
    <contour>
      <point x="76" y="0" type="line"/>
      <point x="150" y="0" type="line"/>
      <point x="150" y="672" type="line"/>
      <point x="437" y="672" type="line"/>
      <point x="437" y="739" type="line"/>
      <point x="76" y="739" type="line"/>
    </contour>
  </outline>
</glyph>
<glyph name="Pecyr" format="2">
  <advance width="669"/>
  <unicode hex="041F"/>
  <anchor x="335" y="805" name="Anchor-0"/>
  <outline>
    <contour>
      <point x="76" y="0" type="line"/>
      <point x="150" y="0" type="line"/>
      <point x="150" y="672" type="line"/>
      <point x="519" y="672" type="line"/>
      <point x="519" y="0" type="line"/>
      <point x="593" y="0" type="line"/>
      <point x="593" y="739" type="line"/>
      <point x="76" y="739" type="line"/>
    </contour>
  </outline>
</glyph>
<glyph name="Tsecyr" format="2">
  <advance width="706"/>
  <unicode hex="0426"/>
  <anchor x="330" y="805" name="Anchor-0"/>
  <outline>
    <contour>
      <point x="76" y="0" type="line"/>
      <point x="600" y="0" type="line"/>
      <point x="628" y="-136" type="line"/>
      <point x="680" y="-136" type="line"/>
      <point x="680" y="67" type="line"/>
      <point x="583" y="67" type="line"/>
      <point x="583" y="739" type="line"/>
      <point x="509" y="739" type="line"/>
      <point x="509" y="67" type="line"/>
      <point x="150" y="67" type="line"/>
      <point x="150" y="739" type="line"/>
      <point x="76" y="739" type="line"/>
    </contour>
  </outline>
</glyph>
<glyph name="Checyr" format="2">
  <advance width="595"/>
  <unicode hex="0427"/>
  <anchor x="290" y="805" name="Anchor-0"/>
  <outline>
    <contour>
      <point x="445" y="0" type="line"/>
      <point x="519" y="0" type="line"/>
      <point x="519" y="739" type="line"/>
      <point x="445" y="739" type="line"/>
      <point x="445" y="368" type="line"/>
      <point x="382.885" y="359.898"/>
      <point x="347.318" y="357"/>
      <point x="310" y="357" type="curve" smooth="yes"/>
      <point x="171.033" y="357"/>
      <point x="118" y="399.261"/>
      <point x="118" y="510" type="curve" smooth="yes"/>
      <point x="118" y="739" type="line"/>
      <point x="43" y="739" type="line"/>
      <point x="43" y="510" type="line" smooth="yes"/>
      <point x="43" y="357.34"/>
      <point x="123.196" y="290"/>
      <point x="305" y="290" type="curve" smooth="yes"/>
      <point x="346.682" y="290"/>
      <point x="381.853" y="292.763"/>
      <point x="445" y="301" type="curve"/>
    </contour>
  </outline>
</glyph>
<glyph name="Hardcyr" format="2">
  <advance width="757"/>
  <unicode hex="042A"/>
  <anchor x="280" y="805" name="Anchor-0"/>
  <outline>
    <contour>
      <point x="317" y="67" type="line"/>
      <point x="317" y="358" type="line"/>
      <point x="454" y="358" type="line" smooth="yes"/>
      <point x="522.792" y="358"/>
      <point x="565.353" y="350.807"/>
      <point x="596" y="334" type="curve"/>
      <point x="634.624" y="314.193"/>
      <point x="657" y="270.541"/>
      <point x="657" y="215" type="curve" smooth="yes"/>
      <point x="657" y="146.577"/>
      <point x="626.658" y="97.957"/>
      <point x="574" y="82" type="curve" smooth="yes"/>
      <point x="539.873" y="71.6585"/>
      <point x="492.667" y="67"/>
      <point x="422" y="67" type="curve" smooth="yes"/>
    </contour>
    <contour>
      <point x="243" y="0" type="line"/>
      <point x="447" y="0" type="line" smooth="yes"/>
      <point x="539.932" y="0"/>
      <point x="596.644" y="10.9394"/>
      <point x="644" y="38" type="curve" smooth="yes"/>
      <point x="700.251" y="70.1432"/>
      <point x="732" y="134.364"/>
      <point x="732" y="216" type="curve" smooth="yes"/>
      <point x="732" y="287.901"/>
      <point x="705.346" y="347.332"/>
      <point x="658" y="381" type="curve" smooth="yes"/>
      <point x="612.938" y="413.044"/>
      <point x="558.864" y="425"/>
      <point x="459" y="425" type="curve" smooth="yes"/>
      <point x="317" y="425" type="line"/>
      <point x="317" y="739" type="line"/>
      <point x="7" y="739" type="line"/>
      <point x="7" y="672" type="line"/>
      <point x="243" y="672" type="line"/>
    </contour>
  </outline>
</glyph>
<glyph name="Softcyr" format="2">
  <advance width="590"/>
  <unicode hex="042C"/>
  <anchor x="113" y="805" name="Anchor-0"/>
  <outline>
    <contour>
      <point x="76" y="0" type="line"/>
      <point x="280" y="0" type="line" smooth="yes"/>
      <point x="372.932" y="0"/>
      <point x="429.644" y="10.9394"/>
      <point x="477" y="38" type="curve" smooth="yes"/>
      <point x="533.251" y="70.1432"/>
      <point x="565" y="134.364"/>
      <point x="565" y="216" type="curve" smooth="yes"/>
      <point x="565" y="287.901"/>
      <point x="538.346" y="347.332"/>
      <point x="491" y="381" type="curve" smooth="yes"/>
      <point x="445.938" y="413.044"/>
      <point x="391.864" y="425"/>
      <point x="292" y="425" type="curve" smooth="yes"/>
      <point x="150" y="425" type="line"/>
      <point x="150" y="739" type="line"/>
      <point x="76" y="739" type="line"/>
    </contour>
    <contour>
      <point x="150" y="67" type="line"/>
      <point x="150" y="358" type="line"/>
      <point x="287" y="358" type="line" smooth="yes"/>
      <point x="355.792" y="358"/>
      <point x="398.353" y="350.807"/>
      <point x="429" y="334" type="curve"/>
      <point x="467.624" y="314.193"/>
      <point x="490" y="270.541"/>
      <point x="490" y="215" type="curve" smooth="yes"/>
      <point x="490" y="146.577"/>
      <point x="459.658" y="97.957"/>
      <point x="407" y="82" type="curve" smooth="yes"/>
      <point x="372.873" y="71.6585"/>
      <point x="325.667" y="67"/>
      <point x="255" y="67" type="curve" smooth="yes"/>
    </contour>
  </outline>
</glyph>
<glyph name="Yucyr" format="2">
  <advance width="1093"/>
  <unicode hex="042E"/>
  <anchor x="590" y="809" name="Anchor-0"/>
  <outline>
    <contour>
      <point x="327" y="372" type="curve" smooth="yes"/>
      <point x="327" y="546.119"/>
      <point x="474.152" y="691"/>
      <point x="651" y="691" type="curve" smooth="yes"/>
      <point x="828.728" y="691"/>
      <point x="974" y="545.279"/>
      <point x="974" y="367" type="curve" smooth="yes"/>
      <point x="974" y="191.115"/>
      <point x="829.091" y="48"/>
      <point x="651" y="48" type="curve" smooth="yes"/>
      <point x="471" y="48"/>
      <point x="327" y="192"/>
    </contour>
    <contour>
      <point x="76" y="0" type="line"/>
      <point x="150" y="0" type="line"/>
      <point x="150" y="347" type="line"/>
      <point x="253" y="347" type="line"/>
      <point x="267.089" y="136.664"/>
      <point x="436.363" y="-19"/>
      <point x="651" y="-19" type="curve" smooth="yes"/>
      <point x="870.732" y="-19"/>
      <point x="1049" y="154.789"/>
      <point x="1049" y="369" type="curve" smooth="yes"/>
      <point x="1049" y="584.49"/>
      <point x="871.476" y="758"/>
      <point x="651" y="758" type="curve" smooth="yes"/>
      <point x="447.132" y="758"/>
      <point x="275.222" y="609.04"/>
      <point x="254" y="414" type="curve"/>
      <point x="150" y="414" type="line"/>
      <point x="150" y="739" type="line"/>
      <point x="76" y="739" type="line"/>
    </contour>
  </outline>
</glyph>
<glyph name="Yacyr" format="2">
  <advance width="607"/>
  <unicode hex="042F"/>
  <anchor x="326" y="805" name="Anchor-0"/>
  <outline>
    <contour>
      <point x="457" y="376" type="line"/>
      <point x="324" y="376" type="line" smooth="yes"/>
      <point x="257.125" y="376"/>
      <point x="215.613" y="383.22"/>
      <point x="186" y="400" type="curve"/>
      <point x="148.634" y="419.666"/>
      <point x="127" y="464.034"/>
      <point x="127" y="521" type="curve" smooth="yes"/>
      <point x="127" y="590.815"/>
      <point x="156.864" y="640.957"/>
      <point x="208" y="657" type="curve"/>
      <point x="238.987" y="667.652"/>
      <point x="281.6" y="672"/>
      <point x="355" y="672" type="curve" smooth="yes"/>
      <point x="457" y="672" type="line"/>
    </contour>
    <contour>
      <point x="25" y="0" type="line"/>
      <point x="112" y="0" type="line"/>
      <point x="317" y="309" type="line"/>
      <point x="457" y="309" type="line"/>
      <point x="457" y="0" type="line"/>
      <point x="531" y="0" type="line"/>
      <point x="531" y="739" type="line"/>
      <point x="330" y="739" type="line" smooth="yes"/>
      <point x="239.522" y="739"/>
      <point x="184.645" y="728.139"/>
      <point x="138" y="701" type="curve" smooth="yes"/>
      <point x="83.2482" y="669.144"/>
      <point x="52" y="603.378"/>
      <point x="52" y="520" type="curve" smooth="yes"/>
      <point x="52" y="446.849"/>
      <point x="77.7435" y="387.496"/>
      <point x="124" y="354" type="curve" smooth="yes"/>
      <point x="154.387" y="331.996"/>
      <point x="188.095" y="319.738"/>
      <point x="234" y="314" type="curve"/>
    </contour>
  </outline>
</glyph>
<glyph name="gecyr" format="2">
  <advance width="355"/>
  <unicode hex="0433"/>
  <anchor x="205" y="623" name="Anchor-0"/>
  <outline>
    <contour>
      <point x="63" y="0" type="line"/>
      <point x="137" y="0" type="line"/>
      <point x="137" y="480" type="line"/>
      <point x="343" y="480" type="line"/>
      <point x="343" y="547" type="line"/>
      <point x="63" y="547" type="line"/>
    </contour>
  </outline>
</glyph>
<glyph name="zecyr" format="2">
  <advance width="480"/>
  <unicode hex="0437"/>
  <anchor x="240" y="623" name="Anchor-0"/>
  <outline>
    <contour>
      <point x="36" y="158" type="line"/>
      <point x="40.0854" y="60.9726"/>
      <point x="128.333" y="-13"/>
      <point x="240" y="-13" type="curve" smooth="yes"/>
      <point x="353.667" y="-13"/>
      <point x="444" y="62.7206"/>
      <point x="444" y="158" type="curve" smooth="yes"/>
      <point x="444" y="226.807"/>
      <point x="406.178" y="274.422"/>
      <point x="336.306" y="293.581" type="curve"/>
      <point x="336.146" y="296.809" type="line"/>
      <point x="387.306" y="315.474"/>
      <point x="415" y="354.876"/>
      <point x="415" y="409" type="curve" smooth="yes"/>
      <point x="415" y="493.54"/>
      <point x="337.536" y="560"/>
      <point x="239" y="560" type="curve" smooth="yes"/>
      <point x="142.464" y="560"/>
      <point x="67.0616" y="495.309"/>
      <point x="63" y="409" type="curve"/>
      <point x="138" y="409" type="line"/>
      <point x="142.241" y="456.707"/>
      <point x="184.061" y="491"/>
      <point x="238" y="491" type="curve" smooth="yes"/>
      <point x="294.488" y="491"/>
      <point x="340" y="454.412"/>
      <point x="340" y="409" type="curve" smooth="yes"/>
      <point x="340" y="351.062"/>
      <point x="288.7" y="319"/>
      <point x="196" y="319" type="curve"/>
      <point x="196" y="258" type="line"/>
      <point x="304.21" y="258"/>
      <point x="369" y="220.549"/>
      <point x="369" y="158" type="curve" smooth="yes"/>
      <point x="369" y="100.581"/>
      <point x="311.471" y="55"/>
      <point x="239" y="55" type="curve" smooth="yes"/>
      <point x="169.083" y="55"/>
      <point x="115.184" y="98.3711"/>
      <point x="111" y="158" type="curve"/>
    </contour>
  </outline>
</glyph>
<glyph name="efcyr" format="2">
  <advance width="784"/>
  <unicode hex="0444"/>
  <anchor x="392" y="805" name="Anchor-0"/>
  <outline>
    <contour>
      <point x="355" y="-192" type="line"/>
      <point x="429" y="-192" type="line"/>
      <point x="429" y="-12" type="line"/>
      <point x="641.672" y="-2.46312"/>
      <point x="744" y="90.119"/>
      <point x="744" y="273" type="curve" smooth="yes"/>
      <point x="744" y="456.235"/>
      <point x="641.3" y="549.48"/>
      <point x="429" y="559" type="curve"/>
      <point x="429" y="739" type="line"/>
      <point x="355" y="739" type="line"/>
      <point x="355" y="559" type="line"/>
      <point x="142.7" y="549.48"/>
      <point x="40" y="456.235"/>
      <point x="40" y="273" type="curve" smooth="yes"/>
      <point x="40" y="90.119"/>
      <point x="142.328" y="-2.46312"/>
      <point x="355" y="-12" type="curve"/>
    </contour>
    <contour>
      <point x="355" y="56" type="line"/>
      <point x="189.288" y="64.6209"/>
      <point x="115" y="131.79"/>
      <point x="115" y="273" type="curve" smooth="yes"/>
      <point x="115" y="414.571"/>
      <point x="189.673" y="482.399"/>
      <point x="355" y="491" type="curve"/>
    </contour>
    <contour>
      <point x="429" y="491" type="line"/>
      <point x="594.327" y="482.399"/>
      <point x="669" y="414.571"/>
      <point x="669" y="273" type="curve" smooth="yes"/>
      <point x="669" y="131.79"/>
      <point x="594.712" y="64.6209"/>
      <point x="429" y="56" type="curve"/>
    </contour>
  </outline>
</glyph>
<glyph name="checyr" format="2">
  <advance width="523"/>
  <unicode hex="0447"/>
  <anchor x="250" y="623" name="Anchor-0"/>
  <outline>
    <contour>
      <point x="386" y="0" type="line"/>
      <point x="460" y="0" type="line"/>
      <point x="460" y="547" type="line"/>
      <point x="386" y="547" type="line"/>
      <point x="386" y="284" type="line"/>
      <point x="335.213" y="277.074"/>
      <point x="309.167" y="275"/>
      <point x="273" y="275" type="curve" smooth="yes"/>
      <point x="150.981" y="275"/>
      <point x="119" y="297.013"/>
      <point x="119" y="381" type="curve" smooth="yes"/>
      <point x="119" y="547" type="line"/>
      <point x="45" y="547" type="line"/>
      <point x="45" y="381" type="line" smooth="yes"/>
      <point x="45" y="273.963"/>
      <point x="109.438" y="208"/>
      <point x="214" y="208" type="curve" smooth="yes"/>
      <point x="273.1" y="208"/>
      <point x="330.455" y="211.335"/>
      <point x="386" y="218" type="curve"/>
    </contour>
  </outline>
</glyph>
<glyph name="hardcyr" format="2">
  <advance width="631"/>
  <unicode hex="044A"/>
  <anchor x="222" y="623" name="Anchor-0"/>
  <outline>
    <contour>
      <point x="185" y="0" type="line"/>
      <point x="420" y="0" type="line" smooth="yes"/>
      <point x="531.378" y="0"/>
      <point x="608" y="66.8404"/>
      <point x="608" y="164" type="curve" smooth="yes"/>
      <point x="608" y="261.16"/>
      <point x="531.378" y="328"/>
      <point x="420" y="328" type="curve" smooth="yes"/>
      <point x="259" y="328" type="line"/>
      <point x="259" y="547" type="line"/>
      <point x="12" y="547" type="line"/>
      <point x="12" y="480" type="line"/>
      <point x="185" y="480" type="line"/>
    </contour>
    <contour>
      <point x="259" y="67" type="line"/>
      <point x="259" y="261" type="line"/>
      <point x="401" y="261" type="line" smooth="yes"/>
      <point x="488.866" y="261"/>
      <point x="533" y="228.568"/>
      <point x="533" y="164" type="curve" smooth="yes"/>
      <point x="533" y="99.4318"/>
      <point x="488.866" y="67"/>
      <point x="401" y="67" type="curve" smooth="yes"/>
    </contour>
  </outline>
</glyph>
<glyph name="ylongcyr" format="2">
  <advance width="679"/>
  <unicode hex="044B"/>
  <anchor x="340" y="623" name="Anchor-0"/>
  <outline>
    <contour>
      <point x="137" y="67" type="line"/>
      <point x="137" y="261" type="line"/>
      <point x="269" y="261" type="line" smooth="yes"/>
      <point x="356.866" y="261"/>
      <point x="401" y="228.568"/>
      <point x="401" y="164" type="curve" smooth="yes"/>
      <point x="401" y="99.4318"/>
      <point x="356.866" y="67"/>
      <point x="269" y="67" type="curve" smooth="yes"/>
    </contour>
    <contour>
      <point x="63" y="0" type="line"/>
      <point x="288" y="0" type="line" smooth="yes"/>
      <point x="399.378" y="0"/>
      <point x="476" y="66.8404"/>
      <point x="476" y="164" type="curve" smooth="yes"/>
      <point x="476" y="261.16"/>
      <point x="399.378" y="328"/>
      <point x="288" y="328" type="curve" smooth="yes"/>
      <point x="137" y="328" type="line"/>
      <point x="137" y="547" type="line"/>
      <point x="63" y="547" type="line"/>
    </contour>
    <contour>
      <point x="542" y="0" type="line"/>
      <point x="616" y="0" type="line"/>
      <point x="616" y="547" type="line"/>
      <point x="542" y="547" type="line"/>
    </contour>
  </outline>
</glyph>
<glyph name="ereversedcyr" format="2">
  <advance width="644"/>
  <unicode hex="044D"/>
  <anchor x="307" y="623" name="Anchor-0"/>
  <outline>
    <contour>
      <point x="39" y="155" type="line"/>
      <point x="95.0532" y="46.1908"/>
      <point x="188.42" y="-13"/>
      <point x="304" y="-13" type="curve" smooth="yes"/>
      <point x="472.33" y="-13"/>
      <point x="602" y="112.319"/>
      <point x="602" y="275" type="curve" smooth="yes"/>
      <point x="602" y="434.261"/>
      <point x="472.732" y="560"/>
      <point x="309" y="560" type="curve" smooth="yes"/>
      <point x="187.003" y="560"/>
      <point x="86.7845" y="495.786"/>
      <point x="39" y="387" type="curve"/>
      <point x="124" y="387" type="line"/>
      <point x="166.681" y="456.102"/>
      <point x="230.271" y="492"/>
      <point x="310" y="492" type="curve" smooth="yes"/>
      <point x="417.731" y="492"/>
      <point x="506.797" y="416.252"/>
      <point x="524" y="310" type="curve"/>
      <point x="199" y="310" type="line"/>
      <point x="199" y="243" type="line"/>
      <point x="525" y="243" type="line"/>
      <point x="510.814" y="134.578"/>
      <point x="418.537" y="55"/>
      <point x="307" y="55" type="curve" smooth="yes"/>
      <point x="233.1" y="55"/>
      <point x="166.35" y="91.4756"/>
      <point x="124" y="155" type="curve"/>
    </contour>
  </outline>
</glyph>
<glyph name="yacyr" format="2">
  <advance width="505"/>
  <unicode hex="044F"/>
  <anchor x="261" y="623" name="Anchor-0"/>
  <outline>
    <contour>
      <point x="368" y="288" type="line"/>
      <point x="241" y="288" type="line" smooth="yes"/>
      <point x="153.375" y="288"/>
      <point x="109" y="320.273"/>
      <point x="109" y="384" type="curve" smooth="yes"/>
      <point x="109" y="447.727"/>
      <point x="153.375" y="480"/>
      <point x="241" y="480" type="curve" smooth="yes"/>
      <point x="368" y="480" type="line"/>
    </contour>
    <contour>
      <point x="9" y="0" type="line"/>
      <point x="93" y="0" type="line"/>
      <point x="247" y="221" type="line"/>
      <point x="368" y="221" type="line"/>
      <point x="368" y="0" type="line"/>
      <point x="442" y="0" type="line"/>
      <point x="442" y="547" type="line"/>
      <point x="222" y="547" type="line" smooth="yes"/>
      <point x="110.868" y="547"/>
      <point x="34" y="480.354"/>
      <point x="34" y="384" type="curve" smooth="yes"/>
      <point x="34" y="306.011"/>
      <point x="85.0391" y="245.762"/>
      <point x="167" y="227" type="curve"/>
    </contour>
  </outline>
</glyph>
<glyph name="iegravecyr" format="2">
  <advance width="650"/>
  <unicode hex="0450"/>
  <anchor x="329" y="805" name="Anchor-0"/>
  <outline>
    <component base="e"/>
    <contour>
      <point x="182" y="718" type="line"/>
      <point x="379" y="610" type="line"/>
      <point x="412" y="666" type="line"/>
      <point x="214" y="776" type="line"/>
    </contour>
  </outline>
</glyph>
<glyph name="djecyr" format="2">
  <advance width="662"/>
  <unicode hex="0452"/>
  <anchor x="345" y="805" name="Anchor-0"/>
  <outline>
    <contour>
      <point x="135" y="0" type="line"/>
      <point x="209" y="0" type="line"/>
      <point x="209" y="220" type="line" smooth="yes"/>
      <point x="209" y="338.586"/>
      <point x="269.031" y="412"/>
      <point x="366" y="412" type="curve" smooth="yes"/>
      <point x="464.562" y="412"/>
      <point x="525" y="336.738"/>
      <point x="525" y="214" type="curve" smooth="yes"/>
      <point x="525" y="0" type="line" smooth="yes"/>
      <point x="525" y="-69.8784"/>
      <point x="482.039" y="-114"/>
      <point x="414" y="-114" type="curve"/>
      <point x="414" y="-181" type="line"/>
      <point x="520.663" y="-181"/>
      <point x="599" y="-104.357"/>
      <point x="599" y="0" type="curve" smooth="yes"/>
      <point x="599" y="214" type="line" smooth="yes"/>
      <point x="599" y="383.691"/>
      <point x="516.812" y="480"/>
      <point x="372" y="480" type="curve" smooth="yes"/>
      <point x="301.107" y="480"/>
      <point x="247.696" y="452.475"/>
      <point x="209" y="396" type="curve"/>
      <point x="209" y="574" type="line"/>
      <point x="396" y="574" type="line"/>
      <point x="396" y="641" type="line"/>
      <point x="209" y="641" type="line"/>
      <point x="209" y="739" type="line"/>
      <point x="135" y="739" type="line"/>
      <point x="135" y="641" type="line"/>
      <point x="12" y="641" type="line"/>
      <point x="12" y="574" type="line"/>
      <point x="135" y="574" type="line"/>
    </contour>
  </outline>
</glyph>
<glyph name="eukrcyr" format="2">
  <advance width="644"/>
  <unicode hex="0454"/>
  <anchor x="335" y="623" name="Anchor-0"/>
  <outline>
    <contour>
      <point x="120" y="310" type="line"/>
      <point x="137.203" y="416.252"/>
      <point x="226.269" y="492"/>
      <point x="334" y="492" type="curve" smooth="yes"/>
      <point x="413.729" y="492"/>
      <point x="477.319" y="456.102"/>
      <point x="520" y="387" type="curve"/>
      <point x="605" y="387" type="line"/>
      <point x="557.215" y="495.786"/>
      <point x="456.997" y="560"/>
      <point x="335" y="560" type="curve" smooth="yes"/>
      <point x="171.268" y="560"/>
      <point x="42" y="434.261"/>
      <point x="42" y="275" type="curve" smooth="yes"/>
      <point x="42" y="112.319"/>
      <point x="171.67" y="-13"/>
      <point x="340" y="-13" type="curve" smooth="yes"/>
      <point x="455.58" y="-13"/>
      <point x="548.947" y="46.1908"/>
      <point x="605" y="155" type="curve"/>
      <point x="520" y="155" type="line"/>
      <point x="477.65" y="91.4756"/>
      <point x="410.9" y="55"/>
      <point x="337" y="55" type="curve" smooth="yes"/>
      <point x="225.463" y="55"/>
      <point x="133.186" y="134.578"/>
      <point x="119" y="243" type="curve"/>
      <point x="445" y="243" type="line"/>
      <point x="445" y="310" type="line"/>
    </contour>
  </outline>
</glyph>
<glyph name="njecyr" format="2">
  <advance width="881"/>
  <unicode hex="045A"/>
  <anchor x="460" y="623" name="Anchor-0"/>
  <outline>
    <contour>
      <point x="63" y="0" type="line"/>
      <point x="137" y="0" type="line"/>
      <point x="137" y="261" type="line"/>
      <point x="435" y="261" type="line"/>
      <point x="435" y="0" type="line"/>
      <point x="670" y="0" type="line" smooth="yes"/>
      <point x="781.378" y="0"/>
      <point x="858" y="66.8404"/>
      <point x="858" y="164" type="curve" smooth="yes"/>
      <point x="858" y="261.16"/>
      <point x="781.378" y="328"/>
      <point x="670" y="328" type="curve" smooth="yes"/>
      <point x="509" y="328" type="line"/>
      <point x="509" y="547" type="line"/>
      <point x="435" y="547" type="line"/>
      <point x="435" y="328" type="line"/>
      <point x="137" y="328" type="line"/>
      <point x="137" y="547" type="line"/>
      <point x="63" y="547" type="line"/>
    </contour>
    <contour>
      <point x="509" y="67" type="line"/>
      <point x="509" y="261" type="line"/>
      <point x="651" y="261" type="line" smooth="yes"/>
      <point x="738.866" y="261"/>
      <point x="783" y="228.568"/>
      <point x="783" y="164" type="curve" smooth="yes"/>
      <point x="783" y="99.4318"/>
      <point x="738.866" y="67"/>
      <point x="651" y="67" type="curve" smooth="yes"/>
    </contour>
  </outline>
</glyph>
<glyph name="omegacyr" format="2">
  <advance width="860"/>
  <unicode hex="0461"/>
  <outline>
    <contour>
      <point x="60" y="547" type="line"/>
      <point x="60" y="357" type="line" smooth="yes"/>
      <point x="60" y="215.506"/>
      <point x="107.791" y="110.253"/>
      <point x="228" y="-13" type="curve"/>
      <point x="311.731" y="31.8255"/>
      <point x="400.647" y="134.388"/>
      <point x="430" y="220" type="curve"/>
      <point x="446.375" y="159.05"/>
      <point x="506.176" y="69.1541"/>
      <point x="585" y="-13" type="curve"/>
      <point x="710.06" y="50.6272"/>
      <point x="800" y="205.407"/>
      <point x="800" y="357" type="curve" smooth="yes"/>
      <point x="800" y="547" type="line"/>
      <point x="724" y="547" type="line"/>
      <point x="724" y="357" type="line" smooth="yes"/>
      <point x="724" y="237.214"/>
      <point x="685.194" y="147.863"/>
      <point x="605" y="83" type="curve"/>
      <point x="534.354" y="130.686"/>
      <point x="467" y="256.609"/>
      <point x="467" y="341" type="curve" smooth="yes"/>
      <point x="467" y="547" type="line"/>
      <point x="465" y="547" type="line"/>
      <point x="395" y="547" type="line"/>
      <point x="393" y="547" type="line"/>
      <point x="393" y="341" type="line" smooth="yes"/>
      <point x="393" y="247.614"/>
      <point x="337.779" y="149.358"/>
      <point x="248" y="83" type="curve"/>
      <point x="189.529" y="114.778"/>
      <point x="136" y="245.732"/>
      <point x="136" y="357" type="curve" smooth="yes"/>
      <point x="136" y="547" type="line"/>
    </contour>
  </outline>
</glyph>
<glyph name="Yatcyr" format="2">
  <advance width="691"/>
  <unicode hex="0462"/>
  <anchor x="224" y="805" name="Anchor-0"/>
  <outline>
    <contour>
      <point x="261" y="67" type="line"/>
      <point x="261" y="358" type="line"/>
      <point x="394" y="358" type="line" smooth="yes"/>
      <point x="460.875" y="358"/>
      <point x="502.387" y="350.78"/>
      <point x="532" y="334" type="curve"/>
      <point x="569.784" y="314.114"/>
      <point x="591" y="271.322"/>
      <point x="591" y="215" type="curve" smooth="yes"/>
      <point x="591" y="146.479"/>
      <point x="561.54" y="98.1062"/>
      <point x="510" y="82" type="curve" smooth="yes"/>
      <point x="476.788" y="71.6212"/>
      <point x="431.5" y="67"/>
      <point x="363" y="67" type="curve" smooth="yes"/>
    </contour>
    <contour>
      <point x="187" y="0" type="line"/>
      <point x="388" y="0" type="line" smooth="yes"/>
      <point x="478.478" y="0"/>
      <point x="533.355" y="10.8612"/>
      <point x="580" y="38" type="curve" smooth="yes"/>
      <point x="635.055" y="70.0318"/>
      <point x="666" y="134.081"/>
      <point x="666" y="216" type="curve" smooth="yes"/>
      <point x="666" y="289.622"/>
      <point x="640.387" y="348.318"/>
      <point x="594" y="381" type="curve" smooth="yes"/>
      <point x="548.975" y="412.722"/>
      <point x="494.841" y="425"/>
      <point x="400" y="425" type="curve" smooth="yes"/>
      <point x="261" y="425" type="line"/>
      <point x="261" y="559" type="line"/>
      <point x="466" y="559" type="line"/>
      <point x="466" y="626" type="line"/>
      <point x="261" y="626" type="line"/>
      <point x="261" y="739" type="line"/>
      <point x="187" y="739" type="line"/>
      <point x="187" y="626" type="line"/>
      <point x="12" y="626" type="line"/>
      <point x="12" y="559" type="line"/>
      <point x="187" y="559" type="line"/>
    </contour>
  </outline>
</glyph>
<glyph name="Yusbigcyr" format="2">
  <advance width="938"/>
  <unicode hex="046A"/>
  <anchor x="469" y="805" name="Anchor-0"/>
  <outline>
    <contour>
      <point x="153" y="0" type="line"/>
      <point x="153" y="174.695"/>
      <point x="279.688" y="320"/>
      <point x="432" y="320" type="curve"/>
      <point x="432" y="0" type="line"/>
      <point x="506" y="0" type="line"/>
      <point x="506" y="320" type="line"/>
      <point x="658.312" y="320"/>
      <point x="785" y="174.695"/>
      <point x="785" y="0" type="curve"/>
      <point x="859" y="0" type="line"/>
      <point x="859" y="212"/>
      <point x="715.667" y="384"/>
      <point x="539" y="384" type="curve"/>
      <point x="783" y="672" type="line"/>
      <point x="783" y="739" type="line"/>
      <point x="155" y="739" type="line"/>
      <point x="155" y="672" type="line"/>
      <point x="399" y="384" type="line"/>
      <point x="222.333" y="384"/>
      <point x="79" y="212"/>
      <point x="79" y="0" type="curve"/>
    </contour>
    <contour>
      <point x="469" y="405" type="line"/>
      <point x="246" y="672" type="line"/>
      <point x="692" y="672" type="line"/>
    </contour>
  </outline>
</glyph>
<glyph name="Ksicyr" format="2">
  <advance width="518"/>
  <unicode hex="046E"/>
  <outline>
    <contour>
      <point x="204" y="-169" type="line"/>
      <point x="162.06" y="-133.176"/>
      <point x="141" y="-96.4048"/>
      <point x="141" y="-59" type="curve" smooth="yes"/>
      <point x="141" y="-30.05"/>
      <point x="155.826" y="-13"/>
      <point x="181" y="-13" type="curve" smooth="yes"/>
      <point x="251" y="-13" type="line" smooth="yes"/>
      <point x="378.971" y="-13"/>
      <point x="484" y="87.9721"/>
      <point x="484" y="211" type="curve" smooth="yes"/>
      <point x="484" y="300.75"/>
      <point x="413.23" y="389.212"/>
      <point x="328" y="406" type="curve"/>
      <point x="399.314" y="422.457"/>
      <point x="450" y="485.607"/>
      <point x="450" y="558" type="curve" smooth="yes"/>
      <point x="450" y="650.906"/>
      <point x="380.12" y="731.797"/>
      <point x="285" y="749" type="curve"/>
      <point x="428" y="878" type="line"/>
      <point x="337" y="878" type="line"/>
      <point x="249" y="804" type="line"/>
      <point x="163" y="878" type="line"/>
      <point x="74" y="878" type="line"/>
      <point x="211" y="752" type="line"/>
      <point x="92" y="752" type="line"/>
      <point x="92" y="683" type="line"/>
      <point x="249" y="683" type="line" smooth="yes"/>
      <point x="317.185" y="683"/>
      <point x="373" y="625.835"/>
      <point x="373" y="556" type="curve" smooth="yes"/>
      <point x="373" y="489.5"/>
      <point x="317.5" y="434"/>
      <point x="251" y="434" type="curve" smooth="yes"/>
      <point x="168" y="434" type="line"/>
      <point x="168" y="367" type="line"/>
      <point x="256" y="367" type="line"/>
      <point x="341.776" y="359.852"/>
      <point x="405" y="294.507"/>
      <point x="405" y="213" type="curve" smooth="yes"/>
      <point x="405" y="126.442"/>
      <point x="336.449" y="57"/>
      <point x="251" y="57" type="curve" smooth="yes"/>
      <point x="171" y="57" type="line" smooth="yes"/>
      <point x="115.654" y="57"/>
      <point x="70" y="8.63366"/>
      <point x="70" y="-50" type="curve" smooth="yes"/>
      <point x="70" y="-90.7727"/>
      <point x="88.3878" y="-130.557"/>
      <point x="125" y="-169" type="curve"/>
    </contour>
  </outline>
</glyph>
<glyph name="ksicyr" format="2">
  <advance width="480"/>
  <unicode hex="046F"/>
  <outline>
    <contour>
      <point x="204" y="-169" type="line"/>
      <point x="162.06" y="-133.176"/>
      <point x="141" y="-96.4048"/>
      <point x="141" y="-59" type="curve" smooth="yes"/>
      <point x="141" y="-30.05"/>
      <point x="155.826" y="-13"/>
      <point x="181" y="-13" type="curve" smooth="yes"/>
      <point x="251" y="-13" type="line" smooth="yes"/>
      <point x="357.418" y="-13"/>
      <point x="444" y="63.7124"/>
      <point x="444" y="158" type="curve" smooth="yes"/>
      <point x="444" y="221.727"/>
      <point x="407.802" y="271.733"/>
      <point x="347" y="292" type="curve"/>
      <point x="387.044" y="307.627"/>
      <point x="415" y="355.728"/>
      <point x="415" y="409" type="curve" smooth="yes"/>
      <point x="415" y="481.286"/>
      <point x="356.943" y="542.66"/>
      <point x="275" y="557" type="curve"/>
      <point x="422" y="686" type="line"/>
      <point x="331" y="686" type="line"/>
      <point x="248.607" y="607.175" type="line"/>
      <point x="157" y="686" type="line"/>
      <point x="68" y="686" type="line"/>
      <point x="205" y="560" type="line"/>
      <point x="100" y="560" type="line"/>
      <point x="100" y="491" type="line"/>
      <point x="238" y="491" type="line" smooth="yes"/>
      <point x="294.488" y="491"/>
      <point x="340" y="454.412"/>
      <point x="340" y="409" type="curve" smooth="yes"/>
      <point x="340" y="353.346"/>
      <point x="310.233" y="319"/>
      <point x="262" y="319" type="curve" smooth="yes"/>
      <point x="186" y="319" type="line"/>
      <point x="186" y="258" type="line"/>
      <point x="262" y="258" type="line" smooth="yes"/>
      <point x="325.25" y="258"/>
      <point x="369" y="217.112"/>
      <point x="369" y="158" type="curve" smooth="yes"/>
      <point x="369" y="100.357"/>
      <point x="312.194" y="55"/>
      <point x="240" y="55" type="curve" smooth="yes"/>
      <point x="171" y="55" type="line" smooth="yes"/>
      <point x="115.605" y="55"/>
      <point x="70" y="7.58911"/>
      <point x="70" y="-50" type="curve" smooth="yes"/>
      <point x="70" y="-90.7727"/>
      <point x="88.3878" y="-130.557"/>
      <point x="125" y="-169" type="curve"/>
    </contour>
  </outline>
</glyph>
<glyph name="izhitsacyr" format="2">
  <advance width="604"/>
  <unicode hex="0475"/>
  <anchor x="299" y="623" name="Anchor-0"/>
  <outline>
    <contour>
      <point x="260" y="0" type="line"/>
      <point x="338" y="0" type="line"/>
      <point x="516" y="424" type="line" smooth="yes"/>
      <point x="531.508" y="460.94"/>
      <point x="547.845" y="480"/>
      <point x="564" y="480" type="curve" smooth="yes"/>
      <point x="574" y="480" type="line"/>
      <point x="574" y="547" type="line"/>
      <point x="560" y="547" type="line" smooth="yes"/>
      <point x="506.792" y="547"/>
      <point x="483.751" y="525.62"/>
      <point x="449" y="444" type="curve" smooth="yes"/>
      <point x="297" y="87" type="line"/>
      <point x="105" y="547" type="line"/>
      <point x="30" y="547" type="line"/>
    </contour>
  </outline>
</glyph>
<glyph name="Izhitsagravedblcyr" format="2">
  <advance width="759"/>
  <unicode hex="0476"/>
  <outline>
    <contour>
      <point x="287.5" y="920" type="line"/>
      <point x="484.5" y="812" type="line"/>
      <point x="517.5" y="868" type="line"/>
      <point x="319.5" y="978" type="line"/>
    </contour>
    <contour>
      <point x="77.5" y="920" type="line"/>
      <point x="274.5" y="812" type="line"/>
      <point x="307.5" y="868" type="line"/>
      <point x="109.5" y="978" type="line"/>
    </contour>
    <contour>
      <point x="334" y="0" type="line"/>
      <point x="406" y="0" type="line"/>
      <point x="660" y="614" type="line"/>
      <point x="672" y="641"/>
      <point x="685" y="672"/>
      <point x="714" y="672" type="curve" smooth="yes"/>
      <point x="729" y="672" type="line"/>
      <point x="729" y="739" type="line"/>
      <point x="690" y="739" type="line" smooth="yes"/>
      <point x="630" y="739"/>
      <point x="609" y="683"/>
      <point x="591" y="638" type="curve" smooth="yes"/>
      <point x="371" y="92" type="line"/>
      <point x="111" y="739" type="line"/>
      <point x="30" y="739" type="line"/>
    </contour>
  </outline>
</glyph>
<glyph name="omegaroundcyr" format="2">
  <advance width="655"/>
  <unicode hex="047B"/>
  <outline>
    <contour>
      <point x="248" y="-2" type="curve"/>
      <point x="262.381" y="-38.9801"/>
      <point x="297.033" y="-63"/>
      <point x="336" y="-63" type="curve" smooth="yes"/>
      <point x="376.125" y="-63"/>
      <point x="410.71" y="-37.8471"/>
      <point x="424" y="1" type="curve"/>
      <point x="539.212" y="36.6852"/>
      <point x="613" y="142.487"/>
      <point x="613" y="272" type="curve" smooth="yes"/>
      <point x="613" y="403.092"/>
      <point x="536.631" y="511.183"/>
      <point x="418" y="548" type="curve"/>
      <point x="403.503" y="583.207"/>
      <point x="369.707" y="606"/>
      <point x="332" y="606" type="curve" smooth="yes"/>
      <point x="295.605" y="606"/>
      <point x="261.692" y="583.523"/>
      <point x="246" y="549" type="curve"/>
      <point x="121.7" y="514.359"/>
      <point x="42" y="406.529"/>
      <point x="42" y="273" type="curve" smooth="yes"/>
      <point x="42" y="141.568"/>
      <point x="123.569" y="32.6775"/>
    </contour>
    <contour>
      <point x="249" y="70" type="curve"/>
      <point x="167.756" y="101.88"/>
      <point x="117" y="179.553"/>
      <point x="117" y="272" type="curve" smooth="yes"/>
      <point x="117" y="364.539"/>
      <point x="165.924" y="443.126"/>
      <point x="244" y="476" type="curve"/>
      <point x="258.548" y="438.591"/>
      <point x="293.452" y="414"/>
      <point x="332" y="414" type="curve" smooth="yes"/>
      <point x="370.008" y="414"/>
      <point x="403.625" y="437.062"/>
      <point x="418" y="473" type="curve"/>
      <point x="493.101" y="438.021"/>
      <point x="538" y="362.442"/>
      <point x="538" y="271" type="curve" smooth="yes"/>
      <point x="538" y="181.226"/>
      <point x="493.806" y="106.814"/>
      <point x="421" y="74" type="curve"/>
      <point x="405.583" y="107.917"/>
      <point x="373" y="129"/>
      <point x="336" y="129" type="curve" smooth="yes"/>
      <point x="298.932" y="129"/>
      <point x="264.825" y="105.87"/>
    </contour>
  </outline>
</glyph>
<glyph name="Omegatitlocyr" format="2">
  <advance width="860"/>
  <unicode hex="047C"/>
  <outline>
    <contour>
      <point x="393" y="277" type="line"/>
      <point x="393" y="191" type="line" smooth="yes"/>
      <point x="393" y="123.61"/>
      <point x="320.922" y="57"/>
      <point x="248" y="57" type="curve" smooth="yes"/>
      <point x="176.153" y="57"/>
      <point x="136" y="117.946"/>
      <point x="136" y="227" type="curve" smooth="yes"/>
      <point x="136" y="497" type="line" smooth="yes"/>
      <point x="136" y="595.833"/>
      <point x="168.643" y="672"/>
      <point x="211" y="672" type="curve" smooth="yes"/>
      <point x="301" y="672" type="line"/>
      <point x="301" y="739" type="line"/>
      <point x="201" y="739" type="line" smooth="yes"/>
      <point x="114.636" y="739"/>
      <point x="60" y="645.227"/>
      <point x="60" y="497" type="curve" smooth="yes"/>
      <point x="60" y="227" type="line" smooth="yes"/>
      <point x="60" y="74.0106"/>
      <point x="128.158" y="-13"/>
      <point x="248" y="-13" type="curve" smooth="yes"/>
      <point x="317.374" y="-13"/>
      <point x="386.831" y="33.941"/>
      <point x="430" y="110" type="curve"/>
      <point x="468.239" y="31.3973"/>
      <point x="524.187" y="-13"/>
      <point x="585" y="-13" type="curve" smooth="yes"/>
      <point x="731.302" y="-13"/>
      <point x="800" y="63.686"/>
      <point x="800" y="227" type="curve" smooth="yes"/>
      <point x="800" y="497" type="line" smooth="yes"/>
      <point x="800" y="661.316"/>
      <point x="754.738" y="739"/>
      <point x="659" y="739" type="curve" smooth="yes"/>
      <point x="559" y="739" type="line"/>
      <point x="559" y="672" type="line"/>
      <point x="649" y="672" type="line" smooth="yes"/>
      <point x="695.286" y="672"/>
      <point x="724" y="605"/>
      <point x="724" y="497" type="curve" smooth="yes"/>
      <point x="724" y="227" type="line" smooth="yes"/>
      <point x="724" y="103.96"/>
      <point x="685.603" y="57"/>
      <point x="585" y="57" type="curve" smooth="yes"/>
      <point x="538.261" y="57"/>
      <point x="467" y="137.924"/>
      <point x="467" y="191" type="curve" smooth="yes"/>
      <point x="467" y="277" type="line"/>
    </contour>
    <contour>
      <point x="273" y="800" type="line"/>
      <point x="334" y="800" type="line"/>
      <point x="334" y="820" type="line" smooth="yes"/>
      <point x="334" y="871.806"/>
      <point x="360.512" y="902"/>
      <point x="406" y="902" type="curve" smooth="yes"/>
      <point x="456" y="902"/>
      <point x="526" y="800"/>
      <point x="629" y="800" type="curve" smooth="yes"/>
      <point x="668" y="800" type="line"/>
      <point x="668" y="864" type="line"/>
      <point x="630" y="864" type="line" smooth="yes"/>
      <point x="543" y="864"/>
      <point x="501" y="965"/>
      <point x="394" y="965" type="curve" smooth="yes"/>
      <point x="324.521" y="965"/>
      <point x="273" y="904.963"/>
      <point x="273" y="824" type="curve" smooth="yes"/>
    </contour>
    <contour>
      <point x="352" y="613" type="curve"/>
      <point x="416" y="613" type="line"/>
      <point x="458.88" y="651.286"/>
      <point x="487" y="703.169"/>
      <point x="487" y="744" type="curve" smooth="yes"/>
      <point x="487" y="757" type="line" smooth="yes"/>
      <point x="487" y="787.392"/>
      <point x="467.633" y="806"/>
      <point x="436" y="806" type="curve" smooth="yes"/>
      <point x="428" y="806" type="line" smooth="yes"/>
      <point x="396.833" y="806"/>
      <point x="376" y="786.769"/>
      <point x="376" y="758" type="curve" smooth="yes"/>
      <point x="376" y="738.25"/>
      <point x="389.821" y="719"/>
      <point x="404" y="719" type="curve" smooth="yes"/>
      <point x="418" y="719" type="line"/>
      <point x="418" y="690.5"/>
      <point x="394.75" y="653.159"/>
    </contour>
  </outline>
</glyph>
<glyph name="dasiacombcyr" format="2">
  <unicode hex="0485"/>
  <outline>
    <contour>
      <point x="-94" y="613" type="line"/>
      <point x="-136.75" y="653.159"/>
      <point x="-160" y="690.5"/>
      <point x="-160" y="719" type="curve"/>
      <point x="-146" y="719" type="line" smooth="yes"/>
      <point x="-131.821" y="719"/>
      <point x="-118" y="738.25"/>
      <point x="-118" y="758" type="curve" smooth="yes"/>
      <point x="-118" y="786.769"/>
      <point x="-138.833" y="806"/>
      <point x="-170" y="806" type="curve" smooth="yes"/>
      <point x="-178" y="806" type="line" smooth="yes"/>
      <point x="-209.633" y="806"/>
      <point x="-229" y="787.392"/>
      <point x="-229" y="757" type="curve" smooth="yes"/>
      <point x="-229" y="744" type="line" smooth="yes"/>
      <point x="-229" y="703.169"/>
      <point x="-200.88" y="651.286"/>
      <point x="-158" y="613" type="curve"/>
    </contour>
  </outline>
</glyph>
<glyph name="bullet" format="2">
  <advance width="606"/>
  <unicode hex="2022"/>
  <outline>
    <contour>
      <point x="303" y="118" type="curve" smooth="yes"/>
      <point x="405.5" y="118"/>
      <point x="488" y="200.5"/>
      <point x="488" y="303" type="curve" smooth="yes"/>
      <point x="488" y="404.824"/>
      <point x="406.173" y="488"/>
      <point x="306" y="488" type="curve" smooth="yes"/>
      <point x="200.157" y="488"/>
      <point x="118" y="407.154"/>
      <point x="118" y="303" type="curve" smooth="yes"/>
      <point x="118" y="201"/>
      <point x="201" y="118"/>
    </contour>
  </outline>
</glyph>
<glyph name="guilsinglleft" format="2">
  <advance width="251"/>
  <unicode hex="2039"/>
  <outline>
    <contour>
      <point x="152" y="99" type="line"/>
      <point x="211" y="132" type="line"/>
      <point x="118" y="300" type="line"/>
      <point x="211" y="467" type="line"/>
      <point x="152" y="499" type="line"/>
      <point x="40.1467" y="300.618" type="line"/>
      <point x="40" y="297" type="line"/>
    </contour>
  </outline>
</glyph>
<glyph name="ruble" format="2">
  <advance width="554"/>
  <unicode hex="20BD"/>
  <outline>
    <contour>
      <point x="178" y="366" type="line"/>
      <point x="178" y="672" type="line"/>
      <point x="255" y="672" type="line" smooth="yes"/>
      <point x="400.842" y="672"/>
      <point x="448" y="633.883"/>
      <point x="448" y="516" type="curve" smooth="yes"/>
      <point x="448" y="408.348"/>
      <point x="400.852" y="366"/>
      <point x="281" y="366" type="curve" smooth="yes"/>
    </contour>
    <contour>
      <point x="104" y="0" type="line"/>
      <point x="178" y="0" type="line"/>
      <point x="178" y="170" type="line"/>
      <point x="377" y="170" type="line"/>
      <point x="377" y="237" type="line"/>
      <point x="178" y="237" type="line"/>
      <point x="178" y="299" type="line"/>
      <point x="289" y="299" type="line" smooth="yes"/>
      <point x="450.812" y="299"/>
      <point x="523" y="365.635"/>
      <point x="523" y="515" type="curve" smooth="yes"/>
      <point x="523" y="659.613"/>
      <point x="436.525" y="739"/>
      <point x="279" y="739" type="curve" smooth="yes"/>
      <point x="104" y="739" type="line"/>
      <point x="104" y="366" type="line"/>
      <point x="37" y="366" type="line"/>
      <point x="37" y="299" type="line"/>
      <point x="104" y="299" type="line"/>
      <point x="104" y="237" type="line"/>
      <point x="37" y="237" type="line"/>
      <point x="37" y="170" type="line"/>
      <point x="104" y="170" type="line"/>
    </contour>
  </outline>
</glyph>
<glyph name="six.fitted" format="2">
  <advance width="556"/>
  <unicode hex="E006"/>
  <anchor x="278" y="805" name="Anchor-0"/>
  <outline>
    <contour>
      <point x="297" y="739" type="line"/>
      <point x="114" y="467" type="line" smooth="yes"/>
      <point x="43.0772" y="361.585"/>
      <point x="26" y="318.309"/>
      <point x="26" y="244" type="curve" smooth="yes"/>
      <point x="26" y="96.9274"/>
      <point x="135.072" y="-13"/>
      <point x="281" y="-13" type="curve" smooth="yes"/>
      <point x="425.229" y="-13"/>
      <point x="530" y="97.241"/>
      <point x="530" y="249" type="curve" smooth="yes"/>
      <point x="530" y="391.034"/>
      <point x="425.969" y="503"/>
      <point x="294" y="503" type="curve" smooth="yes"/>
      <point x="262.238" y="503"/>
      <point x="240.227" y="497.625"/>
      <point x="208" y="482" type="curve"/>
      <point x="382" y="739" type="line"/>
    </contour>
    <contour>
      <point x="280" y="54" type="curve" smooth="yes"/>
      <point x="176.938" y="54"/>
      <point x="100" y="136.067"/>
      <point x="100" y="246" type="curve" smooth="yes"/>
      <point x="100" y="353.672"/>
      <point x="176.695" y="436"/>
      <point x="277" y="436" type="curve" smooth="yes"/>
      <point x="382.95" y="436"/>
      <point x="456" y="358.053"/>
      <point x="456" y="245" type="curve" smooth="yes"/>
      <point x="456" y="133.611"/>
      <point x="382.641" y="54"/>
    </contour>
  </outline>
</glyph>
<glyph name="seven.fitted" format="2">
  <advance width="459"/>
  <unicode hex="E007"/>
  <anchor x="231" y="805" name="Anchor-0"/>
  <outline>
    <contour>
      <point x="64" y="0" type="line"/>
      <point x="142" y="0" type="line"/>
      <point x="444" y="672" type="line"/>
      <point x="444" y="739" type="line"/>
      <point x="18" y="739" type="line"/>
      <point x="18" y="672" type="line"/>
      <point x="368" y="672" type="line"/>
    </contour>
  </outline>
</glyph>
<glyph name="breve.cyrlc" format="2">
  <advance width="453"/>
  <unicode hex="E080"/>
  <outline>
    <contour>
      <point x="74" y="746" type="line"/>
      <point x="88.1496" y="661.102"/>
      <point x="140.885" y="616"/>
      <point x="226" y="616" type="curve" smooth="yes"/>
      <point x="311.115" y="616"/>
      <point x="363.85" y="661.102"/>
      <point x="378" y="746" type="curve"/>
      <point x="304" y="746" type="line"/>
      <point x="304" y="690.615"/>
      <point x="277.429" y="662"/>
      <point x="226" y="662" type="curve" smooth="yes"/>
      <point x="174.571" y="662"/>
      <point x="148" y="690.615"/>
      <point x="148" y="746" type="curve"/>
    </contour>
  </outline>
</glyph>
<glyph name="jecyr.dotless" format="2">
  <advance width="203"/>
  <unicode hex="E093"/>
  <anchor x="103" y="623" name="Anchor-0"/>
  <outline>
    <contour>
      <point x="-45" y="-192" type="line"/>
      <point x="1.49901" y="-189.978"/>
      <point x="33.5463" y="-180.073"/>
      <point x="65" y="-158" type="curve" smooth="yes"/>
      <point x="122.272" y="-117.809"/>
      <point x="140" y="-71.48"/>
      <point x="140" y="38" type="curve" smooth="yes"/>
      <point x="140" y="547" type="line"/>
      <point x="66" y="547" type="line"/>
      <point x="66" y="38" type="line" smooth="yes"/>
      <point x="66" y="-75.9459"/>
      <point x="38.0394" y="-115.998"/>
      <point x="-45" y="-121" type="curve"/>
    </contour>
  </outline>
</glyph>
<glyph name="becyr.serbian" format="2">
  <advance width="655"/>
  <unicode hex="E0A0"/>
  <anchor x="335" y="819" name="Anchor-0"/>
  <outline>
    <contour>
      <point x="231" y="523" type="line"/>
      <point x="111.134" y="488.114"/>
      <point x="42" y="394.106"/>
      <point x="42" y="266" type="curve" smooth="yes"/>
      <point x="42" y="106.217"/>
      <point x="166.772" y="-13"/>
      <point x="334" y="-13" type="curve" smooth="yes"/>
      <point x="494.788" y="-13"/>
      <point x="613" y="104.789"/>
      <point x="613" y="265" type="curve" smooth="yes"/>
      <point x="613" y="387.612"/>
      <point x="553.394" y="474.782"/>
      <point x="440" y="518" type="curve" smooth="yes"/>
      <point x="175" y="619" type="line" smooth="yes"/>
      <point x="144.379" y="630.671"/>
      <point x="135" y="641.222"/>
      <point x="135" y="664" type="curve" smooth="yes"/>
      <point x="135" y="692.5"/>
      <point x="152.5" y="710"/>
      <point x="181" y="710" type="curve" smooth="yes"/>
      <point x="588" y="710" type="line"/>
      <point x="588" y="777" type="line"/>
      <point x="181" y="777" type="line" smooth="yes"/>
      <point x="110.6" y="777"/>
      <point x="60" y="731"/>
      <point x="60" y="667" type="curve" smooth="yes"/>
      <point x="60" y="610.644"/>
      <point x="86.7124" y="577.029"/>
      <point x="149" y="555" type="curve" smooth="yes"/>
      <point x="231" y="526" type="line"/>
    </contour>
    <contour>
      <point x="117" y="265" type="curve" smooth="yes"/>
      <point x="117" y="386.196"/>
      <point x="206.218" y="478"/>
      <point x="324" y="478" type="curve" smooth="yes"/>
      <point x="447" y="478"/>
      <point x="538" y="387"/>
      <point x="538" y="264" type="curve" smooth="yes"/>
      <point x="538" y="142.126"/>
      <point x="452.124" y="55"/>
      <point x="332" y="55" type="curve" smooth="yes"/>
      <point x="208.06" y="55"/>
      <point x="117" y="143.942"/>
    </contour>
  </outline>
</glyph>
<glyph name="igravecyr.loclBGR" format="2">
  <advance width="608"/>
  <outline>
    <component base="u"/>
    <contour>
      <point x="156" y="718" type="line"/>
      <point x="353" y="610" type="line"/>
      <point x="386" y="666" type="line"/>
      <point x="188" y="776" type="line"/>
    </contour>
  </outline>
</glyph>
<glyph name="ishortcyr.loclBGR" format="2">
  <advance width="608"/>
  <outline>
    <component base="u"/>
    <contour>
      <point x="152" y="746" type="line"/>
      <point x="166.15" y="661.102"/>
      <point x="218.885" y="616"/>
      <point x="304" y="616" type="curve" smooth="yes"/>
      <point x="389.115" y="616"/>
      <point x="441.85" y="661.102"/>
      <point x="456" y="746" type="curve"/>
      <point x="382" y="746" type="line"/>
      <point x="382" y="690.615"/>
      <point x="355.429" y="662"/>
      <point x="304" y="662" type="curve" smooth="yes"/>
      <point x="252.571" y="662"/>
      <point x="226" y="690.615"/>
      <point x="226" y="746" type="curve"/>
    </contour>
  </outline>
</glyph>
<glyph name="shacyr.loclBGR" format="2">
  <advance width="938"/>
  <outline>
    <contour>
      <point x="63" y="547" type="line"/>
      <point x="63" y="222" type="line" smooth="yes"/>
      <point x="63" y="73.9745"/>
      <point x="142.943" y="-13"/>
      <point x="279" y="-13" type="curve" smooth="yes"/>
      <point x="363.7" y="-13"/>
      <point x="422.377" y="19.5984"/>
      <point x="468" y="92" type="curve"/>
      <point x="510.961" y="18.0678"/>
      <point x="563.924" y="-13"/>
      <point x="647" y="-13" type="curve" smooth="yes"/>
      <point x="715.724" y="-13"/>
      <point x="757.826" y="7.77797"/>
      <point x="801" y="63" type="curve"/>
      <point x="801" y="0" type="line"/>
      <point x="875" y="0" type="line"/>
      <point x="875" y="547" type="line"/>
      <point x="801" y="547" type="line"/>
      <point x="801" y="228" type="line" smooth="yes"/>
      <point x="801" y="119.364"/>
      <point x="746.309" y="55"/>
      <point x="654" y="55" type="curve" smooth="yes"/>
      <point x="560.159" y="55"/>
      <point x="506" y="118.307"/>
      <point x="506" y="228" type="curve" smooth="yes"/>
      <point x="506" y="547" type="line"/>
      <point x="432" y="547" type="line"/>
      <point x="432" y="230" type="line" smooth="yes"/>
      <point x="432" y="117.833"/>
      <point x="378.143" y="55"/>
      <point x="282" y="55" type="curve" smooth="yes"/>
      <point x="187.257" y="55"/>
      <point x="137" y="115.655"/>
      <point x="137" y="230" type="curve" smooth="yes"/>
      <point x="137" y="547" type="line"/>
    </contour>
  </outline>
</glyph>
<glyph name="shchacyr.loclBGR" format="2">
  <advance width="972"/>
  <outline>
    <contour>
      <point x="63" y="547" type="line"/>
      <point x="63" y="222" type="line" smooth="yes"/>
      <point x="63" y="73.9745"/>
      <point x="142.943" y="-13"/>
      <point x="279" y="-13" type="curve" smooth="yes"/>
      <point x="363.7" y="-13"/>
      <point x="422.377" y="19.5984"/>
      <point x="468" y="92" type="curve"/>
      <point x="510.961" y="18.0678"/>
      <point x="563.924" y="-13"/>
      <point x="647" y="-13" type="curve" smooth="yes"/>
      <point x="715.786" y="-13"/>
      <point x="757.866" y="13.7781"/>
      <point x="801" y="85" type="curve"/>
      <point x="801" y="0" type="line"/>
      <point x="886" y="0" type="line"/>
      <point x="886" y="-126" type="line"/>
      <point x="964" y="-126" type="line"/>
      <point x="964" y="67" type="line"/>
      <point x="875" y="67" type="line"/>
      <point x="875" y="547" type="line"/>
      <point x="801" y="547" type="line"/>
      <point x="801" y="228" type="line" smooth="yes"/>
      <point x="801" y="119.364"/>
      <point x="746.309" y="55"/>
      <point x="654" y="55" type="curve" smooth="yes"/>
      <point x="559.659" y="55"/>
      <point x="506" y="117.723"/>
      <point x="506" y="228" type="curve" smooth="yes"/>
      <point x="506" y="547" type="line"/>
      <point x="432" y="547" type="line"/>
      <point x="432" y="230" type="line" smooth="yes"/>
      <point x="432" y="117.833"/>
      <point x="378.143" y="55"/>
      <point x="282" y="55" type="curve" smooth="yes"/>
      <point x="187.257" y="55"/>
      <point x="137" y="115.655"/>
      <point x="137" y="230" type="curve" smooth="yes"/>
      <point x="137" y="547" type="line"/>
    </contour>
  </outline>
</glyph>
<glyph name="softcyr.loclBGR" format="2">
  <advance width="612"/>
  <anchor x="100" y="623" name="Anchor-0"/>
  <outline>
    <contour>
      <point x="137" y="232" type="curve" smooth="yes"/>
      <point x="137" y="341.31"/>
      <point x="210.235" y="417"/>
      <point x="316" y="417" type="curve" smooth="yes"/>
      <point x="421.281" y="417"/>
      <point x="495" y="340.81"/>
      <point x="495" y="232" type="curve" smooth="yes"/>
      <point x="495" y="123.047"/>
      <point x="426.184" y="55"/>
      <point x="316" y="55" type="curve" smooth="yes"/>
      <point x="208.85" y="55"/>
      <point x="137" y="126.047"/>
    </contour>
    <contour>
      <point x="63" y="547" type="line"/>
      <point x="63" y="232" type="line" smooth="yes"/>
      <point x="63" y="84.8399"/>
      <point x="164.035" y="-13"/>
      <point x="316" y="-13" type="curve" smooth="yes"/>
      <point x="468.273" y="-13"/>
      <point x="570" y="85.122"/>
      <point x="570" y="232" type="curve" smooth="yes"/>
      <point x="570" y="378.193"/>
      <point x="462.771" y="485"/>
      <point x="316" y="485" type="curve" smooth="yes"/>
      <point x="246.621" y="485"/>
      <point x="170.256" y="447.884"/>
      <point x="137" y="398" type="curve"/>
      <point x="137" y="547" type="line"/>
    </contour>
  </outline>
</glyph>
<glyph name="tsecyr.loclBGR" format="2">
  <advance width="642"/>
  <anchor x="304" y="623" name="Anchor-0"/>
  <outline>
    <contour>
      <point x="471" y="0" type="line"/>
      <point x="556" y="0" type="line"/>
      <point x="556" y="-126" type="line"/>
      <point x="634" y="-126" type="line"/>
      <point x="634" y="67" type="line"/>
      <point x="545" y="67" type="line"/>
      <point x="545" y="547" type="line"/>
      <point x="471" y="547" type="line"/>
      <point x="471" y="266" type="line" smooth="yes"/>
      <point x="471" y="128.816"/>
      <point x="411.178" y="55"/>
      <point x="300" y="55" type="curve" smooth="yes"/>
      <point x="190.287" y="55"/>
      <point x="137" y="119.402"/>
      <point x="137" y="252" type="curve" smooth="yes"/>
      <point x="137" y="547" type="line"/>
      <point x="63" y="547" type="line"/>
      <point x="63" y="252" type="line" smooth="yes"/>
      <point x="63" y="78.9763"/>
      <point x="143.523" y="-13"/>
      <point x="295" y="-13" type="curve" smooth="yes"/>
      <point x="380.061" y="-13"/>
      <point x="434.027" y="17.0489"/>
      <point x="471" y="85" type="curve"/>
    </contour>
  </outline>
</glyph>
<glyph name="vecyr.loclBGR" format="2">
  <advance width="606"/>
  <outline>
    <contour>
      <point x="417" y="412" type="curve"/>
      <point x="482.161" y="431.832"/>
      <point x="517" y="486.18"/>
      <point x="517" y="568" type="curve" smooth="yes"/>
      <point x="517" y="676.143"/>
      <point x="424.652" y="752"/>
      <point x="293" y="752" type="curve" smooth="yes"/>
      <point x="152.403" y="752"/>
      <point x="63" y="657.543"/>
      <point x="63" y="509" type="curve" smooth="yes"/>
      <point x="63" y="206" type="line" smooth="yes"/>
      <point x="63" y="78.3133"/>
      <point x="166.822" y="-13"/>
      <point x="312" y="-13" type="curve" smooth="yes"/>
      <point x="466.096" y="-13"/>
      <point x="564" y="72.0833"/>
      <point x="564" y="206" type="curve" smooth="yes"/>
      <point x="564" y="315.381"/>
      <point x="510.803" y="389.929"/>
    </contour>
    <contour>
      <point x="195" y="373" type="line"/>
      <point x="303" y="373" type="line" smooth="yes"/>
      <point x="412.404" y="373"/>
      <point x="489" y="304.228"/>
      <point x="489" y="206" type="curve" smooth="yes"/>
      <point x="489" y="107.409"/>
      <point x="427.158" y="54"/>
      <point x="313" y="54" type="curve" smooth="yes"/>
      <point x="208.842" y="54"/>
      <point x="137" y="116.045"/>
      <point x="137" y="206" type="curve" smooth="yes"/>
      <point x="137" y="512" type="line" smooth="yes"/>
      <point x="137" y="623.122"/>
      <point x="192.798" y="685"/>
      <point x="293" y="685" type="curve" smooth="yes"/>
      <point x="385.746" y="685"/>
      <point x="442" y="640.45"/>
      <point x="442" y="567" type="curve" smooth="yes"/>
      <point x="442" y="483.617"/>
      <point x="394.31" y="441"/>
      <point x="301" y="441" type="curve" smooth="yes"/>
      <point x="195" y="441" type="line"/>
    </contour>
  </outline>
</glyph>
